<?xml version="1.0" encoding="utf-8"?>
<!-- Generator: Adobe Illustrator 15.0.0, SVG Export Plug-In . SVG Version: 6.00 Build 0)  -->
<!DOCTYPE svg PUBLIC "-//W3C//DTD SVG 1.1//EN" "http://www.w3.org/Graphics/SVG/1.1/DTD/svg11.dtd">
<svg version="1.1" id="Ebene_1" xmlns="http://www.w3.org/2000/svg" xmlns:xlink="http://www.w3.org/1999/xlink" x="0px" y="0px"
	 width="354.528px" height="269.896px" viewBox="0 0 354.528 269.896" enable-background="new 0 0 354.528 269.896"
	 xml:space="preserve">
<g id="Ebene_1_1_">
	<g id="XMLID_1_">
		<g>
			<path fill="#7E74E1" d="M198.872,203.288C199.207,275.813,106.188,269,106.188,269l-9.945,0.09v-0.922v-12.14
				c3.238,0.053,6.902-0.107,11.043-0.531c13.893-1.417,29.874-5.964,38.724-18.354c14.158-24.776,14.142-62.153-11.026-81.552
				l23.963-11.01C158.947,144.584,198.661,152.847,198.872,203.288z"/>
			<path fill="#B7D300" d="M190.024,82.288c0,0,4.424,41.854-31.079,62.296l-23.963,11.011c0,0-11.539,7.222-63.89,5.45v81.251
				c0,0-0.584,13.382,25.149,13.735v12.138v0.924l-94.915,0.795l0.142-14.9c36.883,2.654,32.157-17.839,32.157-17.839V51.972
				C33.626,35.833,0,37.16,0,37.16V23.886h123.001C123.003,23.885,182.06,18.575,190.024,82.288z M70.793,144.584
				c0,0,77.57,10.037,74.475-54.331C142.17,25.866,92.031,38.928,70.793,37.6V144.584z"/>
		</g>
	</g>
	<g id="r_x2F_l">
		<g id="XMLID_2_">
			<g>
				<path fill="#7E74E1" d="M354.341,118.345c2.424,24.335-19.468,23.681-19.468,23.681c-26.99,1.098-18.142-27.875-18.142-27.875
					c-20.584-0.672-35.396,23.894-35.396,23.894v102.862c1.771,21.023,31.856,15.715,31.856,15.715v13.273h-89.375l-0.442-13.063
					c22.775,2.655,24.776-9.945,24.776-9.945l-0.23-117.037c-3.981-20.564-26.757-18.354-26.757-18.354v-13.06l27.433-0.214h32.74
					v0.886v22.335c17.699-25.874,44.793-27.874,49.219-28.087C334.979,93.128,351.898,94.01,354.341,118.345z"/>
				<path fill="#B7D300" d="M281.336,0v98.225h-32.74v-58.12c0.582-27.132-32.741-22.405-32.741-22.405V3.824
					C238.863,5.594,281.336,0,281.336,0z"/>
			</g>
		</g>
	</g>
</g>
</svg>
