<?xml version="1.0" encoding="utf-8"?>
<!-- Generator: Adobe Illustrator 15.0.0, SVG Export Plug-In . SVG Version: 6.00 Build 0)  -->
<!DOCTYPE svg PUBLIC "-//W3C//DTD SVG 1.1//EN" "http://www.w3.org/Graphics/SVG/1.1/DTD/svg11.dtd">
<svg version="1.1" id="Ebene_1" xmlns="http://www.w3.org/2000/svg" xmlns:xlink="http://www.w3.org/1999/xlink" x="0px" y="0px"
	 width="770.179px" height="269.896px" viewBox="0 330.105 770.179 269.896" enable-background="new 0 330.105 770.179 269.896"
	 xml:space="preserve">
<g id="r_x2F_l">
	<g id="XMLID_2_">
		<g>
			<path fill="#7E74E1" d="M354.341,448.451c2.423,24.335-19.468,23.68-19.468,23.68c-26.99,1.098-18.141-27.875-18.141-27.875
				c-20.584-0.672-35.396,23.894-35.396,23.894v102.862c1.771,21.024,31.857,15.715,31.857,15.715V600h-89.375l-0.443-13.061
				c22.776,2.655,24.777-9.946,24.777-9.946l-0.231-117.037c-3.982-20.565-26.757-18.353-26.757-18.353v-13.061l27.432-0.213h32.741
				v0.885v22.335c17.699-25.874,44.793-27.874,49.218-28.087C334.978,423.233,351.897,424.116,354.341,448.451z"/>
			<path fill="#B7D300" d="M281.336,330.105v98.224h-32.741v-58.12c0.582-27.131-32.741-22.405-32.741-22.405v-13.875
				C238.862,335.698,281.336,330.105,281.336,330.105z"/>
		</g>
	</g>
</g>
<g id="Ebene_4">
	<g id="XMLID_3_">
		<g>
			<path fill="#A1A1A1" d="M769.08,589.813c0,0,8.442,5.522-21.486,9.326c0,0-17.698,3.648-18.583-12.138
				c-0.886-15.77,0.107-59.873,0.107-59.873l-13.237-0.038v-8.512h13.273l0.107-24.777h14.936v24.777h23.008v8.849h-23.008v53.979
				C744.197,581.406,741.896,593.795,769.08,589.813z"/>
			<path fill="#A1A1A1" d="M704.146,576.539c8.637-9.521,7.522,1.982,7.522,1.982c-7.964,22.564-34.281,21.467-34.281,21.467
				c-37.396,0.848-35.626-42.917-35.626-42.917s-2.425-37.166,36.511-39.629c38.936-2.46,31.414,38.302,31.414,38.302h-51.324
				c-2,22.777,12.159,35.396,24.776,34.245C695.74,588.857,695.528,586.043,704.146,576.539z M693.759,548.664
				c0,0,2.23-26.776-17.026-24.776c0,0-17.043-0.673-18.37,24.776H693.759z"/>
			<path fill="#A1A1A1" d="M590.224,475.059c12.389,0.956,31.485-1.698,31.485-1.698s-0.071,95.355-0.372,108.329
				c-0.283,12.989,11.362,10.335,11.362,10.335v6.194h-38.352l0.071-5.876c12.919,1.257,11.875-5.786,11.875-5.786
				s-0.142-79.57,0.07-94.613c0.23-15.043-16.141-11.417-16.141-11.417V475.059L590.224,475.059z"/>
			<path fill="#A1A1A1" d="M578.491,576.539c8.637-9.521,7.521,1.982,7.521,1.982c-7.964,22.564-34.28,21.467-34.28,21.467
				c-37.396,0.848-35.627-42.917-35.627-42.917s-2.424-37.166,36.511-39.629c38.937-2.46,31.414,38.302,31.414,38.302h-51.324
				c-2,22.777,12.159,35.396,24.777,34.245C570.085,588.857,569.872,586.043,578.491,576.539z M568.102,548.664
				c0,0,2.231-26.776-17.026-24.776c0,0-17.043-0.673-18.37,24.776H568.102z"/>
			<path fill="#A1A1A1" d="M503.84,577.195c0,0,9.098-8.479,4.388,5.097c0,0-8.849,18.653-31.856,16.848
				c-23.007-1.805-30.971-12.723-34.511-38.085c-3.54-25.379,15.929-43.556,35.98-43.611c20.052-0.05,28.617,9.684,28.016,20.303
				c-0.584,10.619-7.362,10.035-10.017,10.035c-2.655,0-10.035-2.371-8.566-10.619c1.487-8.266,1.487-12.105,1.487-12.105
				s-29.15-11.17-30.688,28.476c-1.54,39.625,18.883,36.494,23.007,36.458C485.22,589.954,499.115,589.884,503.84,577.195z"/>
			<path fill="#A1A1A1" d="M434.48,591.795v5.539c0,0-23.45,10.177-26.547-9.292c0,0-35.748,27.893-46.225-4.583
				c-0.09-0.25-0.161-0.48-0.232-0.726c0,0-8.636-23.68,44.016-35.626c0,0,7.309-23.008-11.946-23.45c0,0-16.813,1.115-11.504,6.867
				c0,0,6.194,13.485-9.396,13.485c0,0-7.681,1.327-8.354-9.733c-0.655-11.062,18.07-17.256,29.573-16.813
				c11.504,0.443,26.457-0.655,28.227,17.256v48.457C422.092,583.176,422.092,592.68,434.48,591.795z M407.933,577.866v-24.354
				c-33.626,7.964-30.316,23.13-30.316,23.13C376.963,605.953,407.933,577.866,407.933,577.866z"/>
		</g>
	</g>
</g>
<g id="XMLID_1_">
	<g>
		<path fill="#7E74E1" d="M198.872,533.393c0.335,72.525-92.685,65.712-92.685,65.712l-9.946,0.09v-0.922v-12.14
			c3.239,0.053,6.903-0.107,11.043-0.531c13.893-1.417,29.874-5.964,38.724-18.353c14.158-24.777,14.141-62.154-11.027-81.551
			l23.963-11.01C158.946,474.689,198.661,482.953,198.872,533.393z"/>
		<path fill="#B7D300" d="M190.023,412.393c0,0,4.424,41.854-31.079,62.296l-23.963,11.01c0,0-11.539,7.221-63.889,5.451v81.251
			c0,0-0.584,13.381,25.149,13.735v12.138v0.924l-94.915,0.794l0.142-14.901c36.882,2.655,32.157-17.839,32.157-17.839V382.078
			C33.626,365.938,0,367.265,0,367.265v-13.273h123.001C123.003,353.99,182.059,348.68,190.023,412.393z M70.793,474.689
			c0,0,77.571,10.037,74.474-54.331c-3.097-64.387-53.236-51.324-74.474-52.652V474.689z"/>
	</g>
</g>
</svg>
