<?xml version="1.0" encoding="utf-8"?>
<!-- Generator: Adobe Illustrator 15.0.0, SVG Export Plug-In . SVG Version: 6.00 Build 0)  -->
<!DOCTYPE svg PUBLIC "-//W3C//DTD SVG 1.1//EN" "http://www.w3.org/Graphics/SVG/1.1/DTD/svg11.dtd">
<svg version="1.1" id="Ebene_1" xmlns="http://www.w3.org/2000/svg" xmlns:xlink="http://www.w3.org/1999/xlink" x="0px" y="0px"
	 width="92.766px" height="70px" viewBox="0 0 92.766 70" enable-background="new 0 0 92.766 70" xml:space="preserve">
<g id="r_x2F_l">
	<g id="XMLID_2_">
		<g>
			<path fill="#B7D300" d="M73.782,0v25.477H65.29V10.402c0.152-7.037-8.492-5.811-8.492-5.811v-3.6C62.766,1.451,73.782,0,73.782,0
				z"/>
			<path fill="#7E74E1" d="M92.717,30.695c0.63,6.311-5.049,6.141-5.049,6.141c-7,0.285-4.705-7.229-4.705-7.229
				c-5.338-0.174-9.181,6.197-9.181,6.197v26.678c0.459,5.453,8.263,4.076,8.263,4.076V70H58.864l-0.115-3.387
				c5.908,0.688,6.426-2.58,6.426-2.58l-0.06-30.355c-1.033-5.332-6.94-4.76-6.94-4.76v-3.387l7.115-0.055h8.492v0.229v5.793
				c4.59-6.711,11.618-7.229,12.766-7.285C87.696,24.154,92.084,24.384,92.717,30.695z"/>
		</g>
	</g>
</g>
<g id="XMLID_1_">
	<g>
		<path fill="#B7D300" d="M49.285,20.754c0,0,1.147,10.857-8.06,16.158l-6.216,2.854c0,0-2.992,1.873-16.569,1.414v21.074
			c0,0-0.151,3.471,6.521,3.563v3.148v0.238L0.345,69.41l0.036-3.865c9.566,0.688,8.341-4.627,8.341-4.627V12.892
			C8.722,8.705,0,9.049,0,9.049V5.606h31.902C31.903,5.607,47.22,4.23,49.285,20.754z M18.362,36.912
			c0,0,20.119,2.604,19.314-14.092C36.874,6.121,23.87,9.508,18.362,9.164V36.912z"/>
		<path fill="#7E74E1" d="M51.58,52.137C51.667,70.949,27.541,69.18,27.541,69.18l-2.58,0.023v-0.238v-3.148
			c0.84,0.014,1.79-0.027,2.864-0.139c3.604-0.365,7.748-1.547,10.043-4.76c3.672-6.426,3.667-16.121-2.86-21.152l6.216-2.854
			C41.225,36.912,51.526,39.055,51.58,52.137z"/>
	</g>
</g>
</svg>
