<?xml version="1.0" encoding="utf-8"?>
<!-- Generator: Adobe Illustrator 15.0.0, SVG Export Plug-In . SVG Version: 6.00 Build 0)  -->
<!DOCTYPE svg PUBLIC "-//W3C//DTD SVG 1.1//EN" "http://www.w3.org/Graphics/SVG/1.1/DTD/svg11.dtd">
<svg version="1.1" id="Ebene_1" xmlns="http://www.w3.org/2000/svg" xmlns:xlink="http://www.w3.org/1999/xlink" x="0px" y="0px"
	 width="87.91px" height="75.247px" viewBox="0 0 87.91 75.247" enable-background="new 0 0 87.91 75.247" xml:space="preserve">
<g id="r_x2F_l">
	<g id="XMLID_2_">
		<g>
			<path fill="#7E74E1" d="M87.864,33.2c0.596,6.752-4.785,6.57-4.785,6.57c-6.634,0.305-4.459-7.733-4.459-7.733
				c-5.059-0.187-8.7,6.629-8.7,6.629v28.538c0.435,5.834,7.83,4.361,7.83,4.361v3.682H55.783l-0.109-3.623
				c5.598,0.736,6.09-2.76,6.09-2.76l-0.057-32.471c-0.979-5.706-6.577-5.092-6.577-5.092v-3.624l6.742-0.059h8.047v0.246v6.197
				c4.35-7.179,11.009-7.734,12.097-7.792C83.105,26.203,87.263,26.449,87.864,33.2z"/>
			<path fill="#B7D300" d="M69.92,0.365v27.252h-8.047V11.492c0.143-7.528-8.047-6.217-8.047-6.217v-3.85
				C59.48,1.917,69.92,0.365,69.92,0.365z"/>
		</g>
	</g>
</g>
<g id="XMLID_1_">
	<g>
		<path fill="#7E74E1" d="M48.88,56.77C48.962,76.891,26.1,75,26.1,75l-2.445,0.025V74.77v-3.367
			c0.796,0.014,1.697-0.031,2.714-0.148c3.415-0.393,7.343-1.654,9.518-5.092c3.48-6.875,3.476-17.244-2.71-22.626l5.89-3.055
			C39.067,40.482,48.828,42.775,48.88,56.77z"/>
		<path fill="#B7D300" d="M46.705,23.198c0,0,1.087,11.613-7.639,17.284l-5.89,3.055c0,0-2.836,2.003-15.703,1.513v22.543
			c0,0-0.144,3.713,6.181,3.811v3.367v0.256L0.326,75.247l0.035-4.135c9.065,0.738,7.903-4.949,7.903-4.949V14.788
			c0-4.479-8.265-4.11-8.265-4.11V6.995h30.232C30.232,6.995,44.748,5.521,46.705,23.198z M17.4,40.482
			c0,0,19.066,2.784,18.305-15.074C34.943,7.544,22.62,11.168,17.4,10.8V40.482z"/>
	</g>
</g>
</svg>
