<?xml version="1.0" encoding="utf-8"?>
<!-- Generator: Adobe Illustrator 15.0.0, SVG Export Plug-In . SVG Version: 6.00 Build 0)  -->
<!DOCTYPE svg PUBLIC "-//W3C//DTD SVG 1.1//EN" "http://www.w3.org/Graphics/SVG/1.1/DTD/svg11.dtd">
<svg version="1.1" xmlns="http://www.w3.org/2000/svg" xmlns:xlink="http://www.w3.org/1999/xlink" x="0px" y="0px"
	 width="770.18px" height="269.896px" viewBox="0 0 770.18 269.896" enable-background="new 0 0 770.18 269.896"
	 xml:space="preserve">
<g id="Ebene_1">
	<g id="Ebene_4">
		<g id="XMLID_3_">
			<g>
				<path fill="#A1A1A1" d="M769.08,259.708c0,0,8.443,5.521-21.484,9.326c0,0-17.699,3.647-18.584-12.139
					c-0.887-15.77,0.107-59.872,0.107-59.872l-13.236-0.038v-8.513h13.271l0.107-24.776h14.936v24.776h23.008v8.85h-23.008v53.979
					C744.197,251.301,741.896,263.69,769.08,259.708z"/>
				<path fill="#A1A1A1" d="M704.146,246.433c8.637-9.521,7.521,1.982,7.521,1.982c-7.963,22.564-34.279,21.467-34.279,21.467
					c-37.396,0.849-35.627-42.917-35.627-42.917s-2.424-37.166,36.512-39.629c38.936-2.46,31.414,38.302,31.414,38.302h-51.324
					c-2,22.777,12.158,35.396,24.775,34.245C695.74,258.752,695.529,255.938,704.146,246.433z M693.76,218.558
					c0,0,2.23-26.775-17.025-24.775c0,0-17.043-0.673-18.371,24.775H693.76z"/>
				<path fill="#A1A1A1" d="M590.224,144.954c12.389,0.956,31.484-1.698,31.484-1.698s-0.07,95.355-0.371,108.329
					c-0.283,12.989,11.361,10.335,11.361,10.335v6.194h-38.352l0.07-5.876c12.92,1.257,11.875-5.786,11.875-5.786
					s-0.141-79.57,0.07-94.613c0.23-15.043-16.141-11.417-16.141-11.417v-5.468H590.224z"/>
				<path fill="#A1A1A1" d="M578.492,246.433c8.637-9.521,7.521,1.982,7.521,1.982c-7.965,22.564-34.281,21.467-34.281,21.467
					c-37.395,0.849-35.627-42.917-35.627-42.917s-2.424-37.166,36.512-39.629c38.938-2.46,31.414,38.302,31.414,38.302h-51.324
					c-2,22.777,12.158,35.396,24.777,34.245C570.086,258.752,569.873,255.938,578.492,246.433z M568.103,218.558
					c0,0,2.23-26.775-17.027-24.775c0,0-17.043-0.673-18.369,24.775H568.103z"/>
				<path fill="#A1A1A1" d="M503.842,247.09c0,0,9.098-8.479,4.387,5.097c0,0-8.848,18.653-31.855,16.849
					s-30.971-12.724-34.512-38.085c-3.539-25.379,15.93-43.557,35.98-43.611c20.053-0.05,28.617,9.685,28.016,20.303
					c-0.584,10.619-7.361,10.035-10.016,10.035c-2.656,0-10.035-2.371-8.566-10.619c1.486-8.266,1.486-12.104,1.486-12.104
					s-29.15-11.17-30.688,28.476c-1.541,39.625,18.883,36.494,23.006,36.458C485.22,259.848,499.115,259.779,503.842,247.09z"/>
				<path fill="#A1A1A1" d="M434.48,261.69v5.539c0,0-23.449,10.177-26.547-9.293c0,0-35.748,27.894-46.225-4.582
					c-0.09-0.25-0.161-0.48-0.231-0.727c0,0-8.637-23.68,44.015-35.626c0,0,7.309-23.008-11.945-23.45
					c0,0-16.813,1.115-11.504,6.867c0,0,6.194,13.485-9.396,13.485c0,0-7.682,1.327-8.354-9.733
					c-0.654-11.062,18.07-17.256,29.573-16.813c11.504,0.442,26.457-0.655,28.229,17.256v48.457
					C422.094,253.071,422.094,262.575,434.48,261.69z M407.933,247.76v-24.354c-33.625,7.964-30.316,23.13-30.316,23.13
					C376.963,275.847,407.933,247.76,407.933,247.76z"/>
			</g>
		</g>
	</g>
	<g id="XMLID_1_">
		<g>
			<path fill="#7E74E1" d="M198.872,203.288C199.207,275.813,106.188,269,106.188,269l-9.946,0.09v-0.922v-12.14
				c3.239,0.053,6.903-0.107,11.043-0.531c13.893-1.417,29.874-5.964,38.724-18.354c14.158-24.776,14.142-62.153-11.026-81.551
				l23.963-11.01C158.947,144.584,198.661,152.847,198.872,203.288z"/>
			<path fill="#B7D300" d="M190.024,82.288c0,0,4.424,41.854-31.079,62.296l-23.963,11.01c0,0-11.539,7.222-63.89,5.451v81.251
				c0,0-0.584,13.381,25.149,13.735v12.138v0.924l-94.915,0.794l0.142-14.9c36.883,2.654,32.157-17.839,32.157-17.839V51.972
				C33.626,35.833,0,37.16,0,37.16V23.886h123.001C123.003,23.885,182.06,18.575,190.024,82.288z M70.793,144.584
				c0,0,77.571,10.037,74.475-54.331C142.17,25.866,92.031,38.928,70.793,37.6V144.584z"/>
		</g>
	</g>
	<g id="r_x2F_l">
		<g id="XMLID_2_">
			<g>
				<path fill="#7E74E1" d="M354.341,118.345c2.424,24.335-19.468,23.681-19.468,23.681c-26.99,1.098-18.141-27.875-18.141-27.875
					c-20.584-0.672-35.396,23.894-35.396,23.894v102.862c1.771,21.023,31.857,15.715,31.857,15.715v13.273h-89.375l-0.443-13.062
					c22.776,2.655,24.777-9.946,24.777-9.946l-0.231-117.037c-3.981-20.564-26.757-18.353-26.757-18.353V98.437l27.433-0.214h32.74
					v0.886v22.335c17.699-25.874,44.793-27.874,49.219-28.087C334.979,93.128,351.898,94.01,354.341,118.345z"/>
				<path fill="#B7D300" d="M281.336,0v98.224h-32.74V40.104c0.582-27.132-32.741-22.405-32.741-22.405V3.824
					C238.863,5.593,281.336,0,281.336,0z"/>
			</g>
		</g>
	</g>
</g>
<g id="Ebene_2" opacity="0.67">
	<g id="r_x2F_l_1_">
		<g id="XMLID_6_">
			<g>
				<path fill="#7E74E1" d="M356.467,120.784c2.424,24.335-19.468,23.681-19.468,23.681c-26.99,1.098-18.141-27.875-18.141-27.875
					c-20.584-0.672-35.396,23.893-35.396,23.893v102.863c1.771,21.023,31.857,15.715,31.857,15.715v13.273h-89.375l-0.443-13.063
					c22.776,2.656,24.777-9.945,24.777-9.945l-0.231-117.038c-3.981-20.564-26.757-18.353-26.757-18.353v-13.061l27.433-0.214h32.74
					v0.886v22.335c17.699-25.874,44.793-27.874,49.219-28.087C337.104,95.567,354.023,96.449,356.467,120.784z"/>
				<path fill="#B7D300" d="M283.462,2.439v98.224h-32.74V42.543c0.582-27.132-32.741-22.405-32.741-22.405V6.263
					C240.988,8.031,283.462,2.439,283.462,2.439z"/>
			</g>
		</g>
	</g>
	<g id="Ebene_4_1_">
		<g id="XMLID_5_">
			<g>
				<path fill="#A1A1A1" d="M771.205,262.147c0,0,8.443,5.521-21.484,9.326c0,0-17.699,3.646-18.584-12.139
					c-0.887-15.77,0.107-59.873,0.107-59.873l-13.236-0.037v-8.514h13.271l0.107-24.775h14.936v24.775h23.008v8.85h-23.008v53.979
					C746.322,253.739,744.021,266.13,771.205,262.147z"/>
				<path fill="#A1A1A1" d="M706.271,248.872c8.637-9.52,7.521,1.982,7.521,1.982c-7.963,22.564-34.279,21.467-34.279,21.467
					c-37.396,0.85-35.627-42.916-35.627-42.916s-2.424-37.166,36.512-39.629c38.936-2.461,31.414,38.301,31.414,38.301h-51.324
					c-2,22.777,12.158,35.396,24.775,34.246C697.865,261.19,697.654,258.378,706.271,248.872z M695.885,220.997
					c0,0,2.23-26.775-17.025-24.775c0,0-17.043-0.672-18.371,24.775H695.885z"/>
				<path fill="#A1A1A1" d="M592.349,147.393c12.389,0.955,31.484-1.699,31.484-1.699s-0.07,95.355-0.371,108.33
					c-0.283,12.988,11.361,10.334,11.361,10.334v6.195h-38.352l0.07-5.877c12.92,1.258,11.875-5.785,11.875-5.785
					s-0.141-79.57,0.07-94.613c0.23-15.043-16.141-11.418-16.141-11.418v-5.467H592.349z"/>
				<path fill="#A1A1A1" d="M580.617,248.872c8.637-9.52,7.521,1.982,7.521,1.982c-7.965,22.564-34.281,21.467-34.281,21.467
					c-37.395,0.85-35.627-42.916-35.627-42.916s-2.424-37.166,36.512-39.629c38.938-2.461,31.414,38.301,31.414,38.301h-51.324
					c-2,22.777,12.158,35.396,24.777,34.246C572.211,261.19,571.998,258.378,580.617,248.872z M570.228,220.997
					c0,0,2.23-26.775-17.027-24.775c0,0-17.043-0.672-18.369,24.775H570.228z"/>
				<path fill="#A1A1A1" d="M505.967,249.528c0,0,9.098-8.479,4.387,5.098c0,0-8.848,18.652-31.855,16.848
					s-30.971-12.723-34.512-38.084c-3.539-25.379,15.93-43.557,35.98-43.611c20.053-0.051,28.617,9.684,28.016,20.303
					c-0.584,10.619-7.361,10.035-10.016,10.035c-2.656,0-10.035-2.371-8.566-10.619c1.486-8.266,1.486-12.105,1.486-12.105
					s-29.15-11.17-30.688,28.477c-1.541,39.625,18.883,36.494,23.006,36.457C487.345,262.288,501.24,262.218,505.967,249.528z"/>
				<path fill="#A1A1A1" d="M436.605,264.13v5.539c0,0-23.449,10.176-26.547-9.293c0,0-35.747,27.893-46.225-4.582
					c-0.09-0.25-0.161-0.48-0.231-0.727c0,0-8.637-23.68,44.015-35.627c0,0,7.309-23.008-11.945-23.449
					c0,0-16.813,1.115-11.504,6.867c0,0,6.193,13.484-9.396,13.484c0,0-7.682,1.328-8.354-9.732
					c-0.654-11.063,18.07-17.256,29.572-16.813c11.504,0.441,26.457-0.656,28.229,17.256v48.457
					C424.219,255.51,424.219,265.014,436.605,264.13z M410.058,250.2v-24.354c-33.625,7.963-30.315,23.129-30.315,23.129
					C379.089,278.286,410.058,250.2,410.058,250.2z"/>
			</g>
		</g>
	</g>
	<g id="XMLID_4_">
		<g>
			<path fill="#7E74E1" d="M200.998,205.727c0.335,72.525-92.685,65.711-92.685,65.711l-9.946,0.09v-0.922v-12.139
				c3.239,0.053,6.903-0.107,11.043-0.531c13.893-1.418,29.874-5.965,38.724-18.354c14.158-24.777,14.142-62.154-11.026-81.551
				l23.963-11.01C161.072,147.022,200.787,155.286,200.998,205.727z"/>
			<path fill="#B7D300" d="M192.149,84.727c0,0,4.424,41.854-31.079,62.295l-23.963,11.01c0,0-11.539,7.223-63.89,5.451v81.252
				c0,0-0.584,13.381,25.149,13.734v12.139v0.924l-94.915,0.793l0.142-14.9c36.883,2.654,32.157-17.838,32.157-17.838V54.411
				c0.001-16.14-33.625-14.813-33.625-14.813V26.325h123.001C125.129,26.323,184.185,21.014,192.149,84.727z M72.919,147.022
				c0,0,77.571,10.037,74.475-54.331c-3.098-64.387-53.236-51.324-74.475-52.652V147.022z"/>
		</g>
	</g>
</g>
</svg>
