<?xml version="1.0" encoding="utf-8"?>
<!-- Generator: Adobe Illustrator 15.0.0, SVG Export Plug-In . SVG Version: 6.00 Build 0)  -->
<!DOCTYPE svg PUBLIC "-//W3C//DTD SVG 1.1//EN" "http://www.w3.org/Graphics/SVG/1.1/DTD/svg11.dtd">
<svg version="1.1" id="Ebene_1" xmlns="http://www.w3.org/2000/svg" xmlns:xlink="http://www.w3.org/1999/xlink" x="0px" y="0px"
	 width="19px" height="16px" viewBox="0 0 19 16" enable-background="new 0 0 19 16" xml:space="preserve">
<image display="none" overflow="visible" width="19" height="16" xlink:href="login.gif"  transform="matrix(1 0 0 1 0.4595 0.1255)">
</image>
<path fill="#FFFFFF" d="M13.626,16c-0.578-6.441-2.6-1.6-4.167-4.758c-0.572-1.152-1.402,0.253-1.485-2.736
	c-0.083-2.988,0.66,0.337,1.073-4.42c0.412-4.757-2.847-4.042-2.847-4.042S2.983-0.63,2.983,3.327s1.072,1.979,1.072,4.799
	s-1.957,2.996-3.095,3.41C-0.179,11.952,0.011,16,0.011,16H18.99c0,0,0.289-5.053-2.31-5.01c-2.6,0.042-1.774-2.4-1.774-2.4
	s1.237-3.157,1.072-3.705c-0.164-0.547,0.288-2.484-2.476-2.399c-2.764,0.084-2.641,2.021-2.599,3.031
	c0.042,1.01,0.991,1.933,1.073,3.724s-2.186,1.31-2.063,2.699"/>
</svg>
