<?xml version="1.0" encoding="utf-8"?>
<!-- Generator: Adobe Illustrator 15.0.0, SVG Export Plug-In . SVG Version: 6.00 Build 0)  -->
<!DOCTYPE svg PUBLIC "-//W3C//DTD SVG 1.1//EN" "http://www.w3.org/Graphics/SVG/1.1/DTD/svg11.dtd">
<svg version="1.1" id="Ebene_1" xmlns="http://www.w3.org/2000/svg" xmlns:xlink="http://www.w3.org/1999/xlink" x="0px" y="0px"
	 width="380.295px" height="292.817px" viewBox="0 307.183 380.295 292.817" enable-background="new 0 307.183 380.295 292.817"
	 xml:space="preserve">
<g id="SPLINE">
	<path fill="none" stroke="#000000" stroke-width="0" stroke-linecap="round" stroke-linejoin="round" stroke-miterlimit="10" d="
		M134.981,479.351l23.963-11.625c0,0,31.19-15.973,31.255-62.941c0.064-46.968-40.93-67.903-63.433-64.56S0,340.337,0,340.337v14.01
		c0,0,33.625-2.862,33.625,18.247c0,21.108,0,192.832,0,192.832s3.547,21.51-32.157,18.829l-0.142,15.726l94.915-0.84v-13.786
		c0,0-21.821,1.701-25.149-14.496c-3.328-16.199,0-85.758,0-85.758S114.731,489.171,134.981,479.351z"/>
</g>
<g id="HATCH">
	<path fill="#0092FF" d="M134.981,479.361l23.963-11.625c0,0,31.19-15.975,31.255-62.946c0.064-46.971-40.93-67.908-63.433-64.564
		S0,340.337,0,340.337v14.011c0,0,33.625-2.862,33.625,18.248c0,21.111,0,192.847,0,192.847S35.704,586.847,0,584.167v15.813
		L96.25,600l-0.009-14.628c0,0-21.821,1.703-25.149-14.497s0-85.764,0-85.764S114.731,489.183,134.981,479.361z"/>
</g>
<g id="SPLINE_1_">
	<path fill="none" stroke="#000000" stroke-width="0" stroke-linecap="round" stroke-linejoin="round" stroke-miterlimit="10" d="
		M70.793,461.01V354.028c0,0,77.479-13.543,74.475,52.652C142.263,472.874,77.822,459.646,70.793,461.01z"/>
</g>
<g id="HATCH_1_">
	<path fill="#FFFFFF" d="M70.793,461.01V354.028c0,0,77.479-13.543,74.475,52.652C142.263,472.874,77.822,459.646,70.793,461.01z"/>
</g>
<g id="SPLINE_2_">
	<path fill="none" stroke="#000000" stroke-width="0" stroke-linecap="round" stroke-linejoin="round" stroke-miterlimit="10" d="
		M155.511,485.943c0,0,22.265,17.245,20.523,47.299s-14.282,53.054-59.262,52.054l1.026,14.133c0,0,98.713,9.723,101.604-62.205
		c0,0,6.252-47.656-39.929-62.292L155.511,485.943z"/>
</g>
<g id="HATCH_2_">
	<path fill="#B7D300" d="M155.511,485.943c0,0,22.265,17.245,20.523,47.299s-14.282,53.054-59.262,52.054l1.026,14.133
		c0,0,98.713,9.723,101.604-62.205c0,0,6.252-47.656-39.929-62.292L155.511,485.943z"/>
</g>
<g id="SPLINE_5_">
	<path fill="none" stroke="#000000" stroke-width="0" stroke-linecap="round" stroke-linejoin="round" stroke-miterlimit="10" d="
		M249.92,599.179h89.375v-13.402c0,0-28.784,6.305-31.855-15.867s0-103.859,0-103.859s12.862-24.425,35.396-24.125
		c0,0-6.748,30.748,18.143,28.145c24.891-2.603,26.609-39.69,0-49.165c0,0-31.465-3.427-53.537,28.384v-23.443l-60.173,0.213v13.187
		c0,0,23.413-2.266,26.757,18.532c3.344,20.797,0.676,115.203,0.676,115.203s0.889,15.921-25.222,13.009L249.92,599.179z"/>
</g>
<g id="HATCH_5_">
	<path fill="#0092FF" d="M249.92,599.868h89.375v-13.454c0,0-28.784,6.329-31.855-15.929s0-104.261,0-104.261
		s12.862-24.519,35.396-24.219c0,0-6.748,30.867,18.143,28.254c24.891-2.612,26.609-39.844,0-49.355c0,0-31.465-3.439-53.537,28.493
		v-23.533l-60.173,0.214v13.237c0,0,23.413-2.274,26.757,18.604s0.676,115.648,0.676,115.648s0.889,15.982-25.222,13.06
		L249.92,599.868z"/>
</g>
<g id="SPLINE_3_">
	<path fill="none" stroke="#000000" stroke-width="0" stroke-linecap="round" stroke-linejoin="round" stroke-miterlimit="10" d="
		M307.669,404.131h-32.74v-60.489c0,0-0.15-21.507-32.741-18.759v-13.876c0,0,47.054-1.772,65.481-3.824V404.131z"/>
</g>
<g id="HATCH_3_">
	<path fill="#B7D300" d="M307.669,404.131h-32.74v-60.489c0,0-0.15-21.507-32.741-18.759v-13.876c0,0,47.054-1.772,65.481-3.824
		V404.131z"/>
</g>
</svg>
