<?xml version="1.0" encoding="utf-8"?>
<!-- Generator: Adobe Illustrator 15.0.0, SVG Export Plug-In . SVG Version: 6.00 Build 0)  -->
<!DOCTYPE svg PUBLIC "-//W3C//DTD SVG 1.1//EN" "https://www.w3.org/Graphics/SVG/1.1/DTD/svg11.dtd">
<svg version="1.1" id="Ebene_1" xmlns="https://www.w3.org/2000/svg" xmlns:xlink="https://www.w3.org/1999/xlink" x="0px" y="0px"
	 width="923.831px" height="279.02px" viewBox="0 320.981 923.831 279.02" enable-background="new 0 320.981 923.831 279.02"
	 xml:space="preserve">
<g id="Ebene_4">
	<g id="XMLID_3_">
		<g>
			<path fill="#A1A1A1" d="M922.523,588.452c0,0,10.052,6.574-25.581,11.105c0,0-21.072,4.341-22.126-14.456
				c-1.054-18.775,0.127-71.287,0.127-71.287l-15.763-0.042v-10.136h15.805l0.126-29.501h17.785v29.501h27.394v10.536h-27.394
				v64.271C892.896,578.444,890.157,593.194,922.523,588.452z"/>
			<path fill="#A1A1A1" d="M845.21,572.058c10.283-11.336,8.956,2.36,8.956,2.36c-9.482,26.867-40.816,25.561-40.816,25.561
				c-44.525,1.012-42.419-51.1-42.419-51.1s-2.887-44.252,43.472-47.181c46.359-2.929,37.403,45.6,37.403,45.6h-61.109
				c-2.381,27.12,14.477,42.145,29.501,40.775C835.201,586.725,834.948,583.374,845.21,572.058z M832.841,538.869
				c0,0,2.655-31.882-20.271-29.501c0,0-20.292-0.801-21.873,29.501H832.841z"/>
			<path fill="#A1A1A1" d="M760.141,592.624V600h-45.663l0.085-6.996c15.382,1.496,14.139-6.891,14.139-6.891
				s-0.168-94.74,0.085-112.651c0.273-17.911-19.218-13.592-19.218-13.592v-6.512c14.75,1.139,37.487-2.022,37.487-2.022
				s-0.085,113.536-0.442,128.982C746.276,595.785,760.141,592.624,760.141,592.624z"/>
			<path fill="#A1A1A1" d="M695.598,572.058c10.283-11.336,8.955,2.36,8.955,2.36c-9.482,26.867-40.816,25.561-40.816,25.561
				c-44.525,1.012-42.418-51.1-42.418-51.1s-2.888-44.252,43.472-47.181c46.358-2.929,37.402,45.6,37.402,45.6h-61.108
				c-2.382,27.12,14.477,42.145,29.501,40.775C685.589,586.725,685.336,583.374,695.598,572.058z M683.228,538.869
				c0,0,2.655-31.882-20.271-29.501c0,0-20.292-0.801-21.872,29.501H683.228z"/>
			<path fill="#A1A1A1" d="M606.716,573.723c0,0,10.831-10.094,5.226,6.068c0,0-10.535,22.211-37.93,20.062
				c-27.394-2.149-36.876-15.151-41.09-45.348c-4.215-30.218,18.965-51.858,42.839-51.922c23.875-0.063,34.074,11.526,33.357,24.17
				c-0.695,12.644-8.766,11.948-11.927,11.948s-11.948-2.824-10.199-12.644c1.771-9.841,1.771-14.413,1.771-14.413
				s-34.706-13.297-36.539,33.904c-1.833,47.181,22.483,43.451,27.394,43.409C584.548,588.916,601.09,588.831,606.716,573.723z"/>
			<path fill="#A1A1A1" d="M524.135,590.223v6.595c0,0-27.921,12.117-31.608-11.063c0,0-42.565,33.21-55.041-5.458
				c-0.104-0.295-0.189-0.568-0.273-0.863c0,0-10.283-28.194,52.406-42.419c0,0,8.703-27.394-14.224-27.92
				c0,0-20.019,1.327-13.697,8.176c0,0,7.376,16.057-11.188,16.057c0,0-9.146,1.581-9.946-11.589
				c-0.78-13.171,21.515-20.546,35.211-20.019c13.697,0.526,31.503-0.78,33.61,20.545v57.695
				C509.384,579.96,509.384,591.276,524.135,590.223z M492.526,573.639v-28.995c-40.037,9.482-36.097,27.541-36.097,27.541
				C455.65,607.08,492.526,573.639,492.526,573.639z"/>
		</g>
		<g>
		</g>
	</g>
</g>
<path fill="#0092FF" d="M126.766,340.356C104.057,341.604,0,340.468,0,340.468v17.406c0,0,33.625-2.821,33.625,17.986
	c0,20.807,0,190.078,0,190.078S35.704,587.035,0,584.394v15.586L96.25,600l-0.009-14.419c0,0-21.821,1.68-25.149-14.287
	c-3.327-15.968,0-84.535,0-84.535s43.64,4.015,63.89-5.666l23.963-11.458c0,0,31.189-15.746,31.255-62.044
	C190.262,361.295,155.699,338.766,126.766,340.356z M145.268,406.811c-3.006,66.193-67.447,52.966-74.476,54.33V354.158
	C70.793,354.158,148.272,340.615,145.268,406.811z"/>
<g id="HATCH_2_">
	<path fill="#B7D300" d="M145.677,486.073c0,0,22.266,17.245,20.523,47.299c-1.742,30.055-14.282,53.055-59.262,52.055l1.025,14.133
		c0,0,98.713,9.723,101.604-62.205c0,0,6.252-47.656-39.928-62.292L145.677,486.073z"/>
</g>
<g id="SPLINE_5_">
	<path fill="none" d="M249.92,599.31h89.375v-13.402c0,0-28.784,6.306-31.854-15.867c-3.071-22.172,0-103.858,0-103.858
		s12.861-24.425,35.396-24.125c0,0-6.748,30.748,18.144,28.145c24.891-2.603,26.608-39.689,0-49.165c0,0-31.465-3.427-53.537,28.384
		v-23.442l-60.174,0.213v13.187c0,0,23.414-2.266,26.758,18.532c3.344,20.797,0.676,115.203,0.676,115.203
		s0.889,15.921-25.223,13.009L249.92,599.31z"/>
</g>
<g id="HATCH_5_">
	<path fill="#B7D300" d="M249.92,599.998h89.375v-13.454c0,0-28.784,6.329-31.854-15.929c-3.071-22.258,0-104.261,0-104.261
		s12.861-24.52,35.396-24.219c0,0-6.748,30.866,18.144,28.254c24.891-2.612,26.608-39.845,0-49.355c0,0-31.465-3.438-53.537,28.493
		v-23.533l-60.174,0.214v13.237c0,0,23.414-2.273,26.758,18.604s0.676,115.647,0.676,115.647s0.889,15.982-25.223,13.061
		L249.92,599.998z"/>
</g>
<g id="SPLINE_3_">
	<path fill="none" d="M307.669,417.929h-32.74V357.44c0,0-0.15-21.507-32.74-18.759v-13.876c0,0,47.054-1.772,65.48-3.824V417.929z"
		/>
</g>
<g id="HATCH_3_">
	<path fill="#0092FF" d="M307.669,417.929h-32.74V357.44c0,0-0.15-21.507-32.74-18.759v-13.876c0,0,47.054-1.772,65.48-3.824
		V417.929z"/>
</g>
</svg>
