<?xml version="1.0" encoding="utf-8"?>
<!-- Generator: Adobe Illustrator 15.0.0, SVG Export Plug-In . SVG Version: 6.00 Build 0)  -->
<!DOCTYPE svg PUBLIC "-//W3C//DTD SVG 1.1//EN" "https://www.w3.org/Graphics/SVG/1.1/DTD/svg11.dtd">
<svg version="1.1" id="Ebene_1" xmlns="https://www.w3.org/2000/svg" xmlns:xlink="https://www.w3.org/1999/xlink" x="0px" y="0px"
	 width="380.297px" height="279.02px" viewBox="0 320.981 380.297 279.02" enable-background="new 0 320.981 380.297 279.02"
	 xml:space="preserve">
<path fill="#0092FF" d="M126.766,340.356C104.057,341.604,0,340.468,0,340.468v17.406c0,0,33.625-2.821,33.625,17.986
	c0,20.807,0,190.078,0,190.078S35.704,587.035,0,584.394v15.586L96.25,600l-0.009-14.419c0,0-21.821,1.68-25.149-14.287
	c-3.327-15.968,0-84.535,0-84.535s43.64,4.015,63.89-5.666l23.963-11.458c0,0,31.189-15.746,31.255-62.044
	C190.262,361.295,155.699,338.766,126.766,340.356z M145.268,406.811c-3.006,66.193-67.447,52.966-74.476,54.33V354.158
	C70.793,354.158,148.272,340.615,145.268,406.811z"/>
<g id="HATCH_2_">
	<path fill="#B7D300" d="M145.677,486.073c0,0,22.266,17.245,20.523,47.299c-1.742,30.055-14.282,53.055-59.262,52.055l1.025,14.133
		c0,0,98.713,9.723,101.604-62.205c0,0,6.252-47.656-39.928-62.292L145.677,486.073z"/>
</g>
<g id="SPLINE_5_">
	<path fill="none" d="M249.92,599.31h89.375v-13.402c0,0-28.784,6.306-31.854-15.867c-3.071-22.172,0-103.858,0-103.858
		s12.861-24.425,35.396-24.125c0,0-6.748,30.748,18.144,28.145c24.891-2.603,26.608-39.689,0-49.165c0,0-31.465-3.427-53.537,28.384
		v-23.442l-60.174,0.213v13.187c0,0,23.414-2.266,26.758,18.532c3.344,20.797,0.676,115.203,0.676,115.203
		s0.889,15.921-25.223,13.009L249.92,599.31z"/>
</g>
<g id="HATCH_5_">
	<path fill="#B7D300" d="M249.92,599.998h89.375v-13.454c0,0-28.784,6.329-31.854-15.929c-3.071-22.258,0-104.261,0-104.261
		s12.861-24.52,35.396-24.219c0,0-6.748,30.866,18.144,28.254c24.891-2.612,26.608-39.845,0-49.355c0,0-31.465-3.438-53.537,28.493
		v-23.533l-60.174,0.214v13.237c0,0,23.414-2.273,26.758,18.604s0.676,115.647,0.676,115.647s0.889,15.982-25.223,13.061
		L249.92,599.998z"/>
</g>
<g id="SPLINE_3_">
	<path fill="none" d="M307.669,417.929h-32.74V357.44c0,0-0.15-21.507-32.74-18.759v-13.876c0,0,47.054-1.772,65.48-3.824V417.929z"
		/>
</g>
<g id="HATCH_3_">
	<path fill="#0092FF" d="M307.669,417.929h-32.74V357.44c0,0-0.15-21.507-32.74-18.759v-13.876c0,0,47.054-1.772,65.48-3.824
		V417.929z"/>
</g>
</svg>
