<?xml version="1.0" encoding="utf-8"?>
<!-- Generator: Adobe Illustrator 15.0.0, SVG Export Plug-In . SVG Version: 6.00 Build 0)  -->
<!DOCTYPE svg PUBLIC "-//W3C//DTD SVG 1.1//EN" "http://www.w3.org/Graphics/SVG/1.1/DTD/svg11.dtd">
<svg version="1.1" id="Ebene_1" xmlns="http://www.w3.org/2000/svg" xmlns:xlink="http://www.w3.org/1999/xlink" x="0px" y="0px"
	 width="380.348px" height="279.16px" viewBox="0 320.84 380.348 279.16" enable-background="new 0 320.84 380.348 279.16"
	 xml:space="preserve">
<g id="SPLINE">
	<path fill="none" d="M135.032,479.341l23.963-11.625c0,0,31.189-15.973,31.255-62.941c0.063-46.968-40.931-67.902-63.433-64.56
		c-22.504,3.343-126.767,0.112-126.767,0.112v14.01c0,0,33.625-2.862,33.625,18.247c0,21.107,0,192.832,0,192.832
		s3.547,21.51-32.157,18.829l-0.142,15.726l94.915-0.84v-13.786c0,0-21.821,1.701-25.149-14.496c-3.327-16.199,0-85.758,0-85.758
		S114.782,489.161,135.032,479.341z"/>
</g>
<g id="HATCH">
	<path fill="#0092FF" d="M135.032,480.952l23.963-11.458c0,0,31.189-15.746,31.255-62.044c0.063-46.296-34.5-68.825-63.433-67.235
		c-22.709,1.248-126.767,0.112-126.767,0.112v17.406c0,0,33.625-2.821,33.625,17.986c0,20.807,0,190.078,0,190.078
		s2.079,21.097-33.625,18.455v15.586l96.25,0.021l-0.009-14.419c0,0-21.821,1.68-25.149-14.287c-3.327-15.968,0-84.535,0-84.535
		S114.782,490.633,135.032,480.952z"/>
</g>
<g id="SPLINE_1_">
	<path fill="none" d="M70.844,461V354.018c0,0,77.479-13.543,74.476,52.652C142.313,472.864,77.872,459.636,70.844,461z"/>
</g>
<g id="HATCH_1_">
	<path fill="#FFFFFF" d="M70.844,461V354.018c0,0,77.479-13.543,74.476,52.652C142.313,472.864,77.872,459.636,70.844,461z"/>
</g>
<g id="SPLINE_2_">
	<path fill="none" d="M155.561,485.933c0,0,22.266,17.245,20.523,47.299c-1.742,30.055-14.282,53.055-59.262,52.055l1.025,14.133
		c0,0,98.713,9.723,101.604-62.205c0,0,6.252-47.656-39.928-62.292L155.561,485.933z"/>
</g>
<g id="HATCH_2_">
	<path fill="#B7D300" d="M145.728,485.933c0,0,22.266,17.245,20.523,47.299c-1.742,30.055-14.282,53.055-59.262,52.055l1.025,14.133
		c0,0,98.713,9.723,101.604-62.205c0,0,6.252-47.656-39.928-62.292L145.728,485.933z"/>
</g>
<g id="SPLINE_5_">
	<path fill="none" d="M249.97,599.169h89.375v-13.402c0,0-28.784,6.306-31.854-15.867c-3.071-22.172,0-103.858,0-103.858
		s12.861-24.425,35.396-24.125c0,0-6.748,30.748,18.144,28.145c24.891-2.603,26.608-39.689,0-49.165c0,0-31.465-3.427-53.537,28.384
		v-23.442l-60.174,0.213v13.187c0,0,23.414-2.266,26.758,18.532c3.344,20.797,0.676,115.203,0.676,115.203
		s0.889,15.921-25.223,13.009L249.97,599.169z"/>
</g>
<g id="HATCH_5_">
	<path fill="#B7D300" d="M249.97,599.858h89.375v-13.454c0,0-28.784,6.329-31.854-15.929c-3.071-22.258,0-104.261,0-104.261
		s12.861-24.52,35.396-24.219c0,0-6.748,30.866,18.144,28.254c24.891-2.612,26.608-39.845,0-49.355c0,0-31.465-3.438-53.537,28.493
		v-23.533l-60.174,0.214v13.237c0,0,23.414-2.273,26.758,18.604s0.676,115.647,0.676,115.647s0.889,15.982-25.223,13.061
		L249.97,599.858z"/>
</g>
<g id="SPLINE_3_">
	<path fill="none" d="M307.719,404.121h-32.74v-60.489c0,0-0.15-21.507-32.74-18.759v-13.876c0,0,47.054-1.772,65.48-3.824V404.121z
		"/>
</g>
<g id="HATCH_3_">
	<path fill="#0092FF" d="M307.719,417.788h-32.74v-60.489c0,0-0.15-21.507-32.74-18.759v-13.876c0,0,47.054-1.772,65.48-3.824
		V417.788z"/>
</g>
</svg>
