  0
SECTION
  2
HEADER
  9
$ACADVER
  1
AC1018
  9
$ACADMAINTVER
 70
     0
  9
$DWGCODEPAGE
  3
ANSI_1252
  9
$INSBASE
 10
0.0
 20
0.0
 30
0.0
  9
$EXTMIN
 10
1.000000000000000E+20
 20
1.000000000000000E+20
 30
1.000000000000000E+20
  9
$EXTMAX
 10
-1.000000000000000E+20
 20
-1.000000000000000E+20
 30
-1.000000000000000E+20
  9
$LIMMIN
 10
0.0
 20
0.0
  9
$LIMMAX
 10
12.0
 20
9.0
  9
$ORTHOMODE
 70
     0
  9
$REGENMODE
 70
     1
  9
$FILLMODE
 70
     1
  9
$QTEXTMODE
 70
     0
  9
$MIRRTEXT
 70
     1
  9
$LTSCALE
 40
1.0
  9
$ATTMODE
 70
     1
  9
$TEXTSIZE
 40
0.2
  9
$TRACEWID
 40
0.05
  9
$TEXTSTYLE
  7
Standard
  9
$CLAYER
  8
0
  9
$CELTYPE
  6
ByLayer
  9
$CECOLOR
 62
   256
  9
$CELTSCALE
 40
1.0
  9
$DISPSILH
 70
     0
  9
$DIMSCALE
 40
1.0
  9
$DIMASZ
 40
0.18
  9
$DIMEXO
 40
0.0625
  9
$DIMDLI
 40
0.38
  9
$DIMRND
 40
0.0
  9
$DIMDLE
 40
0.0
  9
$DIMEXE
 40
0.18
  9
$DIMTP
 40
0.0
  9
$DIMTM
 40
0.0
  9
$DIMTXT
 40
0.18
  9
$DIMCEN
 40
0.09
  9
$DIMTSZ
 40
0.0
  9
$DIMTOL
 70
     0
  9
$DIMLIM
 70
     0
  9
$DIMTIH
 70
     1
  9
$DIMTOH
 70
     1
  9
$DIMSE1
 70
     0
  9
$DIMSE2
 70
     0
  9
$DIMTAD
 70
     0
  9
$DIMZIN
 70
     0
  9
$DIMBLK
  1

  9
$DIMASO
 70
     1
  9
$DIMSHO
 70
     1
  9
$DIMPOST
  1

  9
$DIMAPOST
  1

  9
$DIMALT
 70
     0
  9
$DIMALTD
 70
     2
  9
$DIMALTF
 40
25.4
  9
$DIMLFAC
 40
1.0
  9
$DIMTOFL
 70
     0
  9
$DIMTVP
 40
0.0
  9
$DIMTIX
 70
     0
  9
$DIMSOXD
 70
     0
  9
$DIMSAH
 70
     0
  9
$DIMBLK1
  1

  9
$DIMBLK2
  1

  9
$DIMSTYLE
  2
Standard
  9
$DIMCLRD
 70
     0
  9
$DIMCLRE
 70
     0
  9
$DIMCLRT
 70
     0
  9
$DIMTFAC
 40
1.0
  9
$DIMGAP
 40
0.09
  9
$DIMJUST
 70
     0
  9
$DIMSD1
 70
     0
  9
$DIMSD2
 70
     0
  9
$DIMTOLJ
 70
     1
  9
$DIMTZIN
 70
     0
  9
$DIMALTZ
 70
     0
  9
$DIMALTTZ
 70
     0
  9
$DIMUPT
 70
     0
  9
$DIMDEC
 70
     4
  9
$DIMTDEC
 70
     4
  9
$DIMALTU
 70
     2
  9
$DIMALTTD
 70
     2
  9
$DIMTXSTY
  7
Standard
  9
$DIMAUNIT
 70
     0
  9
$DIMADEC
 70
     0
  9
$DIMALTRND
 40
0.0
  9
$DIMAZIN
 70
     0
  9
$DIMDSEP
 70
    46
  9
$DIMATFIT
 70
     3
  9
$DIMFRAC
 70
     0
  9
$DIMLDRBLK
  1

  9
$DIMLUNIT
 70
     2
  9
$DIMLWD
 70
    -2
  9
$DIMLWE
 70
    -2
  9
$DIMTMOVE
 70
     0
  9
$LUNITS
 70
     2
  9
$LUPREC
 70
     4
  9
$SKETCHINC
 40
0.1
  9
$FILLETRAD
 40
0.5
  9
$AUNITS
 70
     0
  9
$AUPREC
 70
     0
  9
$MENU
  1
.
  9
$ELEVATION
 40
0.0
  9
$PELEVATION
 40
0.0
  9
$THICKNESS
 40
0.0
  9
$LIMCHECK
 70
     0
  9
$CHAMFERA
 40
0.5
  9
$CHAMFERB
 40
0.5
  9
$CHAMFERC
 40
1.0
  9
$CHAMFERD
 40
0.0
  9
$SKPOLY
 70
     0
  9
$TDCREATE
 40
2456583.512814085
  9
$TDUCREATE
 40
2456583.429480752
  9
$TDUPDATE
 40
2456583.512814097
  9
$TDUUPDATE
 40
2456583.429480764
  9
$TDINDWG
 40
0.0000000116
  9
$TDUSRTIMER
 40
0.0000000116
  9
$USRTIMER
 70
     1
  9
$ANGBASE
 50
0.0
  9
$ANGDIR
 70
     0
  9
$PDMODE
 70
     0
  9
$PDSIZE
 40
0.0
  9
$PLINEWID
 40
0.0
  9
$SPLFRAME
 70
     0
  9
$SPLINETYPE
 70
     6
  9
$SPLINESEGS
 70
     8
  9
$HANDSEED
  5
79
  9
$SURFTAB1
 70
     6
  9
$SURFTAB2
 70
     6
  9
$SURFTYPE
 70
     6
  9
$SURFU
 70
     6
  9
$SURFV
 70
     6
  9
$UCSBASE
  2

  9
$UCSNAME
  2

  9
$UCSORG
 10
0.0
 20
0.0
 30
0.0
  9
$UCSXDIR
 10
1.0
 20
0.0
 30
0.0
  9
$UCSYDIR
 10
0.0
 20
1.0
 30
0.0
  9
$UCSORTHOREF
  2

  9
$UCSORTHOVIEW
 70
     0
  9
$UCSORGTOP
 10
0.0
 20
0.0
 30
0.0
  9
$UCSORGBOTTOM
 10
0.0
 20
0.0
 30
0.0
  9
$UCSORGLEFT
 10
0.0
 20
0.0
 30
0.0
  9
$UCSORGRIGHT
 10
0.0
 20
0.0
 30
0.0
  9
$UCSORGFRONT
 10
0.0
 20
0.0
 30
0.0
  9
$UCSORGBACK
 10
0.0
 20
0.0
 30
0.0
  9
$PUCSBASE
  2

  9
$PUCSNAME
  2

  9
$PUCSORG
 10
0.0
 20
0.0
 30
0.0
  9
$PUCSXDIR
 10
1.0
 20
0.0
 30
0.0
  9
$PUCSYDIR
 10
0.0
 20
1.0
 30
0.0
  9
$PUCSORTHOREF
  2

  9
$PUCSORTHOVIEW
 70
     0
  9
$PUCSORGTOP
 10
0.0
 20
0.0
 30
0.0
  9
$PUCSORGBOTTOM
 10
0.0
 20
0.0
 30
0.0
  9
$PUCSORGLEFT
 10
0.0
 20
0.0
 30
0.0
  9
$PUCSORGRIGHT
 10
0.0
 20
0.0
 30
0.0
  9
$PUCSORGFRONT
 10
0.0
 20
0.0
 30
0.0
  9
$PUCSORGBACK
 10
0.0
 20
0.0
 30
0.0
  9
$USERI1
 70
     0
  9
$USERI2
 70
     0
  9
$USERI3
 70
     0
  9
$USERI4
 70
     0
  9
$USERI5
 70
     0
  9
$USERR1
 40
0.0
  9
$USERR2
 40
0.0
  9
$USERR3
 40
0.0
  9
$USERR4
 40
0.0
  9
$USERR5
 40
0.0
  9
$WORLDVIEW
 70
     1
  9
$SHADEDGE
 70
     3
  9
$SHADEDIF
 70
    70
  9
$TILEMODE
 70
     1
  9
$MAXACTVP
 70
    64
  9
$PINSBASE
 10
0.0
 20
0.0
 30
0.0
  9
$PLIMCHECK
 70
     0
  9
$PEXTMIN
 10
1.000000000000000E+20
 20
1.000000000000000E+20
 30
1.000000000000000E+20
  9
$PEXTMAX
 10
-1.000000000000000E+20
 20
-1.000000000000000E+20
 30
-1.000000000000000E+20
  9
$PLIMMIN
 10
0.0
 20
0.0
  9
$PLIMMAX
 10
12.0
 20
9.0
  9
$UNITMODE
 70
     0
  9
$VISRETAIN
 70
     1
  9
$PLINEGEN
 70
     0
  9
$PSLTSCALE
 70
     1
  9
$TREEDEPTH
 70
  3020
  9
$CMLSTYLE
  2
Standard
  9
$CMLJUST
 70
     0
  9
$CMLSCALE
 40
1.0
  9
$PROXYGRAPHICS
 70
     1
  9
$MEASUREMENT
 70
     0
  9
$CELWEIGHT
370
    -1
  9
$ENDCAPS
280
     0
  9
$JOINSTYLE
280
     0
  9
$LWDISPLAY
290
     1
  9
$INSUNITS
 70
     1
  9
$HYPERLINKBASE
  1

  9
$STYLESHEET
  1

  9
$XEDIT
290
     1
  9
$CEPSNTYPE
380
     0
  9
$PSTYLEMODE
290
     1
  9
$FINGERPRINTGUID
  2
{3BF8D198-37DF-49E8-8C25-38F55206DE59}
  9
$VERSIONGUID
  2
{FAEB1C32-E019-11D5-929B-00C0DF256EC4}
  9
$EXTNAMES
290
     1
  9
$PSVPSCALE
 40
0.0
  9
$OLESTARTUP
290
     0
  9
$SORTENTS
280
   127
  9
$INDEXCTL
280
     0
  9
$HIDETEXT
280
     1
  9
$XCLIPFRAME
290
     0
  9
$HALOGAP
280
     0
  9
$OBSCOLOR
 70
   257
  9
$OBSLTYPE
280
     0
  9
$INTERSECTIONDISPLAY
280
     0
  9
$INTERSECTIONCOLOR
 70
   257
  9
$DIMASSOC
280
     2
  9
$PROJECTNAME
  1

  0
ENDSEC
  0
SECTION
  2
CLASSES
  0
CLASS
  1
ACDBDICTIONARYWDFLT
  2
AcDbDictionaryWithDefault
  3
ObjectDBX Classes
 90
        0
 91
        3
280
     0
281
     0
  0
CLASS
  1
VISUALSTYLE
  2
AcDbVisualStyle
  3
ObjectDBX Classes
 90
     4095
 91
        3
280
     0
281
     0
  0
ENDSEC
  0
SECTION
  2
TABLES
  0
TABLE
  2
VPORT
  5
8
330
0
100
AcDbSymbolTable
 70
     1
  0
VPORT
  5
29
330
8
100
AcDbSymbolTableRecord
100
AcDbViewportTableRecord
  2
*Active
 70
     0
 10
0.0
 20
0.0
 11
1.0
 21
1.0
 12
0.0
 22
0.0
 13
0.0
 23
0.0
 14
0.5
 24
0.5
 15
0.5
 25
0.5
 16
0.0
 26
0.0
 36
1.0
 17
399.5
 27
300.5
 37
0.0
 40
350.43359375
 41
2.853607695823255
 42
50.0
 43
0.0
 44
0.0
 50
0.0
 51
0.0
 71
     0
 72
   100
 73
     1
 74
     3
 75
     0
 76
     0
 77
     0
 78
     0
281
     0
 65
     1
110
0.0
120
0.0
130
0.0
111
1.0
121
0.0
131
0.0
112
0.0
122
1.0
132
0.0
 79
     0
146
0.0
  0
ENDTAB
  0
TABLE
  2
LTYPE
  5
5
330
0
100
AcDbSymbolTable
 70
     1
  0
LTYPE
  5
14
330
5
100
AcDbSymbolTableRecord
100
AcDbLinetypeTableRecord
  2
ByBlock
 70
     0
  3

 72
    65
 73
     0
 40
0.0
  0
LTYPE
  5
15
330
5
100
AcDbSymbolTableRecord
100
AcDbLinetypeTableRecord
  2
ByLayer
 70
     0
  3

 72
    65
 73
     0
 40
0.0
  0
LTYPE
  5
16
330
5
100
AcDbSymbolTableRecord
100
AcDbLinetypeTableRecord
  2
Continuous
 70
     0
  3
Solid line
 72
    65
 73
     0
 40
0.0
  0
ENDTAB
  0
TABLE
  2
LAYER
  5
2
330
0
100
AcDbSymbolTable
 70
     2
  0
LAYER
  5
10
330
2
100
AcDbSymbolTableRecord
100
AcDbLayerTableRecord
  2
0
 70
     0
 62
     7
  6
Continuous
370
    -3
390
F
  0
LAYER
  5
3B
330
2
100
AcDbSymbolTableRecord
100
AcDbLayerTableRecord
  2
Ebene 1
 70
     0
 62
     7
  6
Continuous
370
    -3
390
F
  0
ENDTAB
  0
TABLE
  2
STYLE
  5
3
330
0
100
AcDbSymbolTable
 70
     1
  0
STYLE
  5
11
330
3
100
AcDbSymbolTableRecord
100
AcDbTextStyleTableRecord
  2
Standard
 70
     0
 40
0.0
 41
1.0
 50
0.0
 71
     0
 42
0.2
  3
txt
  4

  0
ENDTAB
  0
TABLE
  2
VIEW
  5
6
330
0
100
AcDbSymbolTable
 70
     0
  0
ENDTAB
  0
TABLE
  2
UCS
  5
7
330
0
100
AcDbSymbolTable
 70
     0
  0
ENDTAB
  0
TABLE
  2
APPID
  5
9
330
0
100
AcDbSymbolTable
 70
     1
  0
APPID
  5
12
330
9
100
AcDbSymbolTableRecord
100
AcDbRegAppTableRecord
  2
ACAD
 70
     0
  0
ENDTAB
  0
TABLE
  2
DIMSTYLE
  5
A
330
0
100
AcDbSymbolTable
 70
     1
100
AcDbDimStyleTable
  0
DIMSTYLE
105
27
330
A
100
AcDbSymbolTableRecord
100
AcDbDimStyleTableRecord
  2
Standard
 70
     0
340
11
  0
ENDTAB
  0
TABLE
  2
BLOCK_RECORD
  5
1
330
0
100
AcDbSymbolTable
 70
    10
  0
BLOCK_RECORD
  5
1F
330
1
100
AcDbSymbolTableRecord
100
AcDbBlockTableRecord
  2
*Model_Space
340
22
  0
BLOCK_RECORD
  5
1B
330
1
100
AcDbSymbolTableRecord
100
AcDbBlockTableRecord
  2
*Paper_Space
340
1E
  0
BLOCK_RECORD
  5
23
330
1
100
AcDbSymbolTableRecord
100
AcDbBlockTableRecord
  2
*Paper_Space0
340
26
  0
BLOCK_RECORD
  5
3C
330
1
100
AcDbSymbolTableRecord
100
AcDbBlockTableRecord
  2
block 2
340
0
102
{BLKREFS
331
3D
102
}
  0
BLOCK_RECORD
  5
40
330
1
100
AcDbSymbolTableRecord
100
AcDbBlockTableRecord
  2
block 3
340
0
102
{BLKREFS
331
41
102
}
  0
BLOCK_RECORD
  5
44
330
1
100
AcDbSymbolTableRecord
100
AcDbBlockTableRecord
  2
block 4
340
0
102
{BLKREFS
331
45
102
}
  0
BLOCK_RECORD
  5
48
330
1
100
AcDbSymbolTableRecord
100
AcDbBlockTableRecord
  2
block 5
340
0
102
{BLKREFS
331
49
102
}
  0
BLOCK_RECORD
  5
5B
330
1
100
AcDbSymbolTableRecord
100
AcDbBlockTableRecord
  2
block 6
340
0
102
{BLKREFS
331
5C
102
}
  0
BLOCK_RECORD
  5
5F
330
1
100
AcDbSymbolTableRecord
100
AcDbBlockTableRecord
  2
block 7
340
0
102
{BLKREFS
331
60
102
}
  0
BLOCK_RECORD
  5
68
330
1
100
AcDbSymbolTableRecord
100
AcDbBlockTableRecord
  2
block 8
340
0
102
{BLKREFS
331
69
102
}
  0
BLOCK_RECORD
  5
6C
330
1
100
AcDbSymbolTableRecord
100
AcDbBlockTableRecord
  2
block 9
340
0
102
{BLKREFS
331
6D
102
}
  0
BLOCK_RECORD
  5
70
330
1
100
AcDbSymbolTableRecord
100
AcDbBlockTableRecord
  2
block 10
340
0
102
{BLKREFS
331
71
102
}
  0
ENDTAB
  0
ENDSEC
  0
SECTION
  2
BLOCKS
  0
BLOCK
  5
20
330
1F
100
AcDbEntity
  8
0
100
AcDbBlockBegin
  2
*Model_Space
 70
     0
 71
     0
 10
0.0
 20
0.0
 30
0.0
  3
*Model_Space
  1

  0
ENDBLK
  5
21
330
1F
100
AcDbEntity
  8
0
100
AcDbBlockEnd
  0
BLOCK
  5
1C
330
1B
100
AcDbEntity
 67
     1
  8
0
100
AcDbBlockBegin
  2
*Paper_Space
 70
     0
 71
     0
 10
0.0
 20
0.0
 30
0.0
  3
*Paper_Space
  1

  0
ENDBLK
  5
1D
330
1B
100
AcDbEntity
 67
     1
  8
0
100
AcDbBlockEnd
  0
BLOCK
  5
24
330
23
100
AcDbEntity
  8
0
100
AcDbBlockBegin
  2
*Paper_Space0
 70
     0
 71
     0
 10
0.0
 20
0.0
 30
0.0
  3
*Paper_Space0
  1

  0
ENDBLK
  5
25
330
23
100
AcDbEntity
  8
0
100
AcDbBlockEnd
  0
BLOCK
  5
3E
330
3C
100
AcDbEntity
  8
0
100
AcDbBlockBegin
  2
block 2
 70
     0
 71
     0
 10
0.0
 20
0.0
 30
0.0
  3
block 2
  1

  0
INSERT
  5
41
330
3C
100
AcDbEntity
  8
Ebene 1
100
AcDbBlockReference
  2
block 3
 10
0.0
 20
0.0
 30
0.0
  0
INSERT
  5
5C
330
3C
100
AcDbEntity
  8
Ebene 1
100
AcDbBlockReference
  2
block 6
 10
0.0
 20
0.0
 30
0.0
  0
INSERT
  5
69
330
3C
100
AcDbEntity
  8
Ebene 1
100
AcDbBlockReference
  2
block 8
 10
0.0
 20
0.0
 30
0.0
  0
ENDBLK
  5
3F
330
3C
100
AcDbEntity
  8
0
100
AcDbBlockEnd
  0
BLOCK
  5
42
330
40
100
AcDbEntity
  8
0
100
AcDbBlockBegin
  2
block 3
 70
     0
 71
     0
 10
0.0
 20
0.0
 30
0.0
  3
block 3
  1

  0
INSERT
  5
45
330
40
100
AcDbEntity
  8
Ebene 1
100
AcDbBlockReference
  2
block 4
 10
0.0
 20
0.0
 30
0.0
  0
ENDBLK
  5
43
330
40
100
AcDbEntity
  8
0
100
AcDbBlockEnd
  0
BLOCK
  5
46
330
44
100
AcDbEntity
  8
0
100
AcDbBlockBegin
  2
block 4
 70
     0
 71
     0
 10
0.0
 20
0.0
 30
0.0
  3
block 4
  1

  0
INSERT
  5
49
330
44
100
AcDbEntity
  8
Ebene 1
100
AcDbBlockReference
  2
block 5
 10
0.0
 20
0.0
 30
0.0
  0
ENDBLK
  5
47
330
44
100
AcDbEntity
  8
0
100
AcDbBlockEnd
  0
BLOCK
  5
4A
330
48
100
AcDbEntity
  8
0
100
AcDbBlockBegin
  2
block 5
 70
     0
 71
     0
 10
0.0
 20
0.0
 30
0.0
  3
block 5
  1

  0
SPLINE
  5
4C
330
48
100
AcDbEntity
  8
Ebene 1
370
     0
100
AcDbSpline
210
0.0
220
0.0
230
1.0
 70
    11
 71
     3
 72
    47
 73
    43
 74
     0
 42
0.0000000001
 43
0.0000000001
 40
0.0
 40
0.0
 40
0.0
 40
0.0
 40
1.0
 40
1.0
 40
1.0
 40
2.0
 40
2.0
 40
2.0
 40
3.0
 40
3.0
 40
3.0
 40
4.0
 40
4.0
 40
4.0
 40
5.0
 40
5.0
 40
5.0
 40
6.0
 40
6.0
 40
6.0
 40
7.0
 40
7.0
 40
7.0
 40
8.0
 40
8.0
 40
8.0
 40
9.0
 40
9.0
 40
9.0
 40
10.0
 40
10.0
 40
10.0
 40
11.0
 40
11.0
 40
11.0
 40
12.0
 40
12.0
 40
12.0
 40
13.0
 40
13.0
 40
13.0
 40
14.0
 40
14.0
 40
14.0
 40
14.0
 10
898.072265625
 20
138.51171875
 30
0.0
 10
898.072265625
 20
138.51171875
 30
0.0
 10
909.03515625
 20
131.341796875
 30
0.0
 10
870.1796875
 20
126.40234375
 30
0.0
 10
870.1796875
 20
126.40234375
 30
0.0
 10
847.1982421875
 20
121.666015625
 30
0.0
 10
846.0498046875
 20
142.1630859375
 30
0.0
 10
844.8974609375
 20
162.640625
 30
0.0
 10
846.1865234375
 20
219.9013671875
 30
0.0
 10
846.1865234375
 20
219.9013671875
 30
0.0
 10
846.1865234375
 20
219.9013671875
 30
0.0
 10
829.0029296875
 20
219.9501953125
 30
0.0
 10
829.0029296875
 20
219.9501953125
 30
0.0
 10
829.0029296875
 20
219.9501953125
 30
0.0
 10
829.0029296875
 20
231.00390625
 30
0.0
 10
829.0029296875
 20
231.00390625
 30
0.0
 10
829.0029296875
 20
231.00390625
 30
0.0
 10
846.2333984375
 20
231.00390625
 30
0.0
 10
846.2333984375
 20
231.00390625
 30
0.0
 10
846.2333984375
 20
231.00390625
 30
0.0
 10
846.373046875
 20
263.1728515625
 30
0.0
 10
846.373046875
 20
263.1728515625
 30
0.0
 10
846.373046875
 20
263.1728515625
 30
0.0
 10
865.765625
 20
263.1728515625
 30
0.0
 10
865.765625
 20
263.1728515625
 30
0.0
 10
865.765625
 20
263.1728515625
 30
0.0
 10
865.765625
 20
231.00390625
 30
0.0
 10
865.765625
 20
231.00390625
 30
0.0
 10
865.765625
 20
231.00390625
 30
0.0
 10
895.638671875
 20
231.00390625
 30
0.0
 10
895.638671875
 20
231.00390625
 30
0.0
 10
895.638671875
 20
231.00390625
 30
0.0
 10
895.638671875
 20
219.513671875
 30
0.0
 10
895.638671875
 20
219.513671875
 30
0.0
 10
895.638671875
 20
219.513671875
 30
0.0
 10
865.765625
 20
219.513671875
 30
0.0
 10
865.765625
 20
219.513671875
 30
0.0
 10
865.765625
 20
219.513671875
 30
0.0
 10
865.765625
 20
149.427734375
 30
0.0
 10
865.765625
 20
149.427734375
 30
0.0
 10
865.765625
 20
149.427734375
 30
0.0
 10
862.7783203125
 20
133.3408203125
 30
0.0
 10
898.072265625
 20
138.51171875
 30
0.0
  0
HATCH
  5
4D
330
48
100
AcDbEntity
  8
Ebene 1
 62
   253
420
 10592673
100
AcDbHatch
 10
0.0
 20
0.0
 30
0.0
210
0.0
220
0.0
230
1.0
  2
SOLID
 70
     1
 71
     0
 91
        1
 92
        1
 93
        1
 72
     4
 94
        3
 73
     0
 74
     1
 95
       47
 96
       43
 40
0.0
 40
0.0
 40
0.0
 40
0.0
 40
1.0
 40
1.0
 40
1.0
 40
2.0
 40
2.0
 40
2.0
 40
3.0
 40
3.0
 40
3.0
 40
4.0
 40
4.0
 40
4.0
 40
5.0
 40
5.0
 40
5.0
 40
6.0
 40
6.0
 40
6.0
 40
7.0
 40
7.0
 40
7.0
 40
8.0
 40
8.0
 40
8.0
 40
9.0
 40
9.0
 40
9.0
 40
10.0
 40
10.0
 40
10.0
 40
11.0
 40
11.0
 40
11.0
 40
12.0
 40
12.0
 40
12.0
 40
13.0
 40
13.0
 40
13.0
 40
14.0
 40
14.0
 40
14.0
 40
14.0
 10
898.072265625
 20
138.51171875
 10
898.072265625
 20
138.51171875
 10
909.03515625
 20
131.341796875
 10
870.1796875
 20
126.40234375
 10
870.1796875
 20
126.40234375
 10
847.1982421875
 20
121.666015625
 10
846.0498046875
 20
142.1630859375
 10
844.8974609375
 20
162.640625
 10
846.1865234375
 20
219.9013671875
 10
846.1865234375
 20
219.9013671875
 10
846.1865234375
 20
219.9013671875
 10
829.0029296875
 20
219.9501953125
 10
829.0029296875
 20
219.9501953125
 10
829.0029296875
 20
219.9501953125
 10
829.0029296875
 20
231.00390625
 10
829.0029296875
 20
231.00390625
 10
829.0029296875
 20
231.00390625
 10
846.2333984375
 20
231.00390625
 10
846.2333984375
 20
231.00390625
 10
846.2333984375
 20
231.00390625
 10
846.373046875
 20
263.1728515625
 10
846.373046875
 20
263.1728515625
 10
846.373046875
 20
263.1728515625
 10
865.765625
 20
263.1728515625
 10
865.765625
 20
263.1728515625
 10
865.765625
 20
263.1728515625
 10
865.765625
 20
231.00390625
 10
865.765625
 20
231.00390625
 10
865.765625
 20
231.00390625
 10
895.638671875
 20
231.00390625
 10
895.638671875
 20
231.00390625
 10
895.638671875
 20
231.00390625
 10
895.638671875
 20
219.513671875
 10
895.638671875
 20
219.513671875
 10
895.638671875
 20
219.513671875
 10
865.765625
 20
219.513671875
 10
865.765625
 20
219.513671875
 10
865.765625
 20
219.513671875
 10
865.765625
 20
149.427734375
 10
865.765625
 20
149.427734375
 10
865.765625
 20
149.427734375
 10
862.7783203125
 20
133.3408203125
 10
898.072265625
 20
138.51171875
 97
        0
 75
     2
 76
     1
 98
        0
  0
SPLINE
  5
4E
330
48
100
AcDbEntity
  8
Ebene 1
370
     0
100
AcDbSpline
210
0.0
220
0.0
230
1.0
 70
    11
 71
     3
 72
    29
 73
    25
 74
     0
 42
0.0000000001
 43
0.0000000001
 40
0.0
 40
0.0
 40
0.0
 40
0.0
 40
1.0
 40
1.0
 40
1.0
 40
2.0
 40
2.0
 40
2.0
 40
3.0
 40
3.0
 40
3.0
 40
4.0
 40
4.0
 40
4.0
 40
5.0
 40
5.0
 40
5.0
 40
6.0
 40
6.0
 40
6.0
 40
7.0
 40
7.0
 40
7.0
 40
8.0
 40
8.0
 40
8.0
 40
8.0
 10
813.763671875
 20
155.7470703125
 30
0.0
 10
824.9775390625
 20
168.109375
 30
0.0
 10
823.529296875
 20
153.17578125
 30
0.0
 10
823.529296875
 20
153.17578125
 30
0.0
 10
813.1875
 20
123.8779296875
 30
0.0
 10
779.0205078125
 20
125.302734375
 30
0.0
 10
779.0205078125
 20
125.302734375
 30
0.0
 10
730.46484375
 20
124.1982421875
 30
0.0
 10
732.7626953125
 20
181.0263671875
 30
0.0
 10
732.7626953125
 20
181.0263671875
 30
0.0
 10
732.7626953125
 20
181.0263671875
 30
0.0
 10
729.615234375
 20
229.283203125
 30
0.0
 10
780.169921875
 20
232.48046875
 30
0.0
 10
830.7236328125
 20
235.6748046875
 30
0.0
 10
820.9580078125
 20
182.7470703125
 30
0.0
 10
820.9580078125
 20
182.7470703125
 30
0.0
 10
820.9580078125
 20
182.7470703125
 30
0.0
 10
754.318359375
 20
182.7470703125
 30
0.0
 10
754.318359375
 20
182.7470703125
 30
0.0
 10
751.7216796875
 20
153.17578125
 30
0.0
 10
770.1044921875
 20
136.7890625
 30
0.0
 10
786.486328125
 20
138.2861328125
 30
0.0
 10
802.8486328125
 20
139.7529296875
 30
0.0
 10
802.57421875
 20
143.40625
 30
0.0
 10
813.763671875
 20
155.7470703125
 30
0.0
  0
SPLINE
  5
4F
330
48
100
AcDbEntity
  8
Ebene 1
370
     0
100
AcDbSpline
210
0.0
220
0.0
230
1.0
 70
    11
 71
     3
 72
    14
 73
    10
 74
     0
 42
0.0000000001
 43
0.0000000001
 40
0.0
 40
0.0
 40
0.0
 40
0.0
 40
1.0
 40
1.0
 40
1.0
 40
2.0
 40
2.0
 40
2.0
 40
3.0
 40
3.0
 40
3.0
 40
3.0
 10
800.2783203125
 20
191.939453125
 30
0.0
 10
800.2783203125
 20
191.939453125
 30
0.0
 10
803.171875
 20
226.705078125
 30
0.0
 10
778.1728515625
 20
224.1083984375
 30
0.0
 10
778.1728515625
 20
224.1083984375
 30
0.0
 10
756.0439453125
 20
224.982421875
 30
0.0
 10
754.3193359375
 20
191.939453125
 30
0.0
 10
754.3193359375
 20
191.939453125
 30
0.0
 10
800.2783203125
 20
191.939453125
 30
0.0
 10
800.2783203125
 20
191.939453125
 30
0.0
  0
HATCH
  5
50
330
48
100
AcDbEntity
  8
Ebene 1
 62
   253
420
 10592673
100
AcDbHatch
 10
0.0
 20
0.0
 30
0.0
210
0.0
220
0.0
230
1.0
  2
SOLID
 70
     1
 71
     0
 91
        2
 92
        1
 93
        1
 72
     4
 94
        3
 73
     0
 74
     1
 95
       29
 96
       25
 40
0.0
 40
0.0
 40
0.0
 40
0.0
 40
1.0
 40
1.0
 40
1.0
 40
2.0
 40
2.0
 40
2.0
 40
3.0
 40
3.0
 40
3.0
 40
4.0
 40
4.0
 40
4.0
 40
5.0
 40
5.0
 40
5.0
 40
6.0
 40
6.0
 40
6.0
 40
7.0
 40
7.0
 40
7.0
 40
8.0
 40
8.0
 40
8.0
 40
8.0
 10
813.763671875
 20
155.7470703125
 10
824.9775390625
 20
168.109375
 10
823.529296875
 20
153.17578125
 10
823.529296875
 20
153.17578125
 10
813.1875
 20
123.8779296875
 10
779.0205078125
 20
125.302734375
 10
779.0205078125
 20
125.302734375
 10
730.46484375
 20
124.1982421875
 10
732.7626953125
 20
181.0263671875
 10
732.7626953125
 20
181.0263671875
 10
732.7626953125
 20
181.0263671875
 10
729.615234375
 20
229.283203125
 10
780.169921875
 20
232.48046875
 10
830.7236328125
 20
235.6748046875
 10
820.9580078125
 20
182.7470703125
 10
820.9580078125
 20
182.7470703125
 10
820.9580078125
 20
182.7470703125
 10
754.318359375
 20
182.7470703125
 10
754.318359375
 20
182.7470703125
 10
751.7216796875
 20
153.17578125
 10
770.1044921875
 20
136.7890625
 10
786.486328125
 20
138.2861328125
 10
802.8486328125
 20
139.7529296875
 10
802.57421875
 20
143.40625
 10
813.763671875
 20
155.7470703125
 97
        0
 92
        1
 93
        1
 72
     4
 94
        3
 73
     0
 74
     1
 95
       14
 96
       10
 40
0.0
 40
0.0
 40
0.0
 40
0.0
 40
1.0
 40
1.0
 40
1.0
 40
2.0
 40
2.0
 40
2.0
 40
3.0
 40
3.0
 40
3.0
 40
3.0
 10
800.2783203125
 20
191.939453125
 10
800.2783203125
 20
191.939453125
 10
803.171875
 20
226.705078125
 10
778.1728515625
 20
224.1083984375
 10
778.1728515625
 20
224.1083984375
 10
756.0439453125
 20
224.982421875
 10
754.3193359375
 20
191.939453125
 10
754.3193359375
 20
191.939453125
 10
800.2783203125
 20
191.939453125
 10
800.2783203125
 20
191.939453125
 97
        0
 75
     2
 76
     1
 98
        0
  0
SPLINE
  5
51
330
48
100
AcDbEntity
  8
Ebene 1
370
     0
100
AcDbSpline
210
0.0
220
0.0
230
1.0
 70
    11
 71
     3
 72
    38
 73
    34
 74
     0
 42
0.0000000001
 43
0.0000000001
 40
0.0
 40
0.0
 40
0.0
 40
0.0
 40
1.0
 40
1.0
 40
1.0
 40
2.0
 40
2.0
 40
2.0
 40
3.0
 40
3.0
 40
3.0
 40
4.0
 40
4.0
 40
4.0
 40
5.0
 40
5.0
 40
5.0
 40
6.0
 40
6.0
 40
6.0
 40
7.0
 40
7.0
 40
7.0
 40
8.0
 40
8.0
 40
8.0
 40
9.0
 40
9.0
 40
9.0
 40
10.0
 40
10.0
 40
10.0
 40
11.0
 40
11.0
 40
11.0
 40
11.0
 10
665.8466796875
 20
287.5078125
 30
0.0
 10
681.9326171875
 20
286.2666015625
 30
0.0
 10
706.7265625
 20
289.712890625
 30
0.0
 10
706.7265625
 20
289.712890625
 30
0.0
 10
706.7265625
 20
289.712890625
 30
0.0
 10
706.634765625
 20
165.9033203125
 30
0.0
 10
706.244140625
 20
149.05859375
 30
0.0
 10
705.876953125
 20
132.193359375
 30
0.0
 10
720.9931640625
 20
135.6396484375
 30
0.0
 10
720.9931640625
 20
135.6396484375
 30
0.0
 10
720.9931640625
 20
135.6396484375
 30
0.0
 10
720.9931640625
 20
127.5966796875
 30
0.0
 10
720.9931640625
 20
127.5966796875
 30
0.0
 10
720.9931640625
 20
127.5966796875
 30
0.0
 10
671.197265625
 20
127.5966796875
 30
0.0
 10
671.197265625
 20
127.5966796875
 30
0.0
 10
671.197265625
 20
127.5966796875
 30
0.0
 10
671.2890625
 20
135.2265625
 30
0.0
 10
671.2890625
 20
135.2265625
 30
0.0
 10
688.064453125
 20
133.59375
 30
0.0
 10
686.70703125
 20
142.7392578125
 30
0.0
 10
686.70703125
 20
142.7392578125
 30
0.0
 10
686.70703125
 20
142.7392578125
 30
0.0
 10
686.5224609375
 20
246.052734375
 30
0.0
 10
686.7958984375
 20
265.5849609375
 30
0.0
 10
687.095703125
 20
285.1171875
 30
0.0
 10
665.8388671875
 20
280.4091796875
 30
0.0
 10
665.8388671875
 20
280.4091796875
 30
0.0
 10
665.8388671875
 20
280.4091796875
 30
0.0
 10
665.8388671875
 20
287.5078125
 30
0.0
 10
665.8388671875
 20
287.5078125
 30
0.0
 10
665.8388671875
 20
287.5078125
 30
0.0
 10
665.8466796875
 20
287.5078125
 30
0.0
 10
665.8466796875
 20
287.5078125
 30
0.0
  0
HATCH
  5
52
330
48
100
AcDbEntity
  8
Ebene 1
 62
   253
420
 10592673
100
AcDbHatch
 10
0.0
 20
0.0
 30
0.0
210
0.0
220
0.0
230
1.0
  2
SOLID
 70
     1
 71
     0
 91
        1
 92
        1
 93
        1
 72
     4
 94
        3
 73
     0
 74
     1
 95
       38
 96
       34
 40
0.0
 40
0.0
 40
0.0
 40
0.0
 40
1.0
 40
1.0
 40
1.0
 40
2.0
 40
2.0
 40
2.0
 40
3.0
 40
3.0
 40
3.0
 40
4.0
 40
4.0
 40
4.0
 40
5.0
 40
5.0
 40
5.0
 40
6.0
 40
6.0
 40
6.0
 40
7.0
 40
7.0
 40
7.0
 40
8.0
 40
8.0
 40
8.0
 40
9.0
 40
9.0
 40
9.0
 40
10.0
 40
10.0
 40
10.0
 40
11.0
 40
11.0
 40
11.0
 40
11.0
 10
665.8466796875
 20
287.5078125
 10
681.9326171875
 20
286.2666015625
 10
706.7265625
 20
289.712890625
 10
706.7265625
 20
289.712890625
 10
706.7265625
 20
289.712890625
 10
706.634765625
 20
165.9033203125
 10
706.244140625
 20
149.05859375
 10
705.876953125
 20
132.193359375
 10
720.9931640625
 20
135.6396484375
 10
720.9931640625
 20
135.6396484375
 10
720.9931640625
 20
135.6396484375
 10
720.9931640625
 20
127.5966796875
 10
720.9931640625
 20
127.5966796875
 10
720.9931640625
 20
127.5966796875
 10
671.197265625
 20
127.5966796875
 10
671.197265625
 20
127.5966796875
 10
671.197265625
 20
127.5966796875
 10
671.2890625
 20
135.2265625
 10
671.2890625
 20
135.2265625
 10
688.064453125
 20
133.59375
 10
686.70703125
 20
142.7392578125
 10
686.70703125
 20
142.7392578125
 10
686.70703125
 20
142.7392578125
 10
686.5224609375
 20
246.052734375
 10
686.7958984375
 20
265.5849609375
 10
687.095703125
 20
285.1171875
 10
665.8388671875
 20
280.4091796875
 10
665.8388671875
 20
280.4091796875
 10
665.8388671875
 20
280.4091796875
 10
665.8388671875
 20
287.5078125
 10
665.8388671875
 20
287.5078125
 10
665.8388671875
 20
287.5078125
 10
665.8466796875
 20
287.5078125
 10
665.8466796875
 20
287.5078125
 97
        0
 75
     2
 76
     1
 98
        0
  0
SPLINE
  5
53
330
48
100
AcDbEntity
  8
Ebene 1
370
     0
100
AcDbSpline
210
0.0
220
0.0
230
1.0
 70
    11
 71
     3
 72
    29
 73
    25
 74
     0
 42
0.0000000001
 43
0.0000000001
 40
0.0
 40
0.0
 40
0.0
 40
0.0
 40
1.0
 40
1.0
 40
1.0
 40
2.0
 40
2.0
 40
2.0
 40
3.0
 40
3.0
 40
3.0
 40
4.0
 40
4.0
 40
4.0
 40
5.0
 40
5.0
 40
5.0
 40
6.0
 40
6.0
 40
6.0
 40
7.0
 40
7.0
 40
7.0
 40
8.0
 40
8.0
 40
8.0
 40
8.0
 10
650.6123046875
 20
155.7470703125
 30
0.0
 10
661.828125
 20
168.109375
 30
0.0
 10
660.3779296875
 20
153.17578125
 30
0.0
 10
660.3779296875
 20
153.17578125
 30
0.0
 10
650.0361328125
 20
123.8779296875
 30
0.0
 10
615.8671875
 20
125.302734375
 30
0.0
 10
615.8671875
 20
125.302734375
 30
0.0
 10
567.314453125
 20
124.1982421875
 30
0.0
 10
569.609375
 20
181.0263671875
 30
0.0
 10
569.609375
 20
181.0263671875
 30
0.0
 10
569.609375
 20
181.0263671875
 30
0.0
 10
566.4619140625
 20
229.283203125
 30
0.0
 10
617.015625
 20
232.48046875
 30
0.0
 10
667.57421875
 20
235.6748046875
 30
0.0
 10
657.8037109375
 20
182.7470703125
 30
0.0
 10
657.8037109375
 20
182.7470703125
 30
0.0
 10
657.8037109375
 20
182.7470703125
 30
0.0
 10
591.166015625
 20
182.7470703125
 30
0.0
 10
591.166015625
 20
182.7470703125
 30
0.0
 10
588.5693359375
 20
153.17578125
 30
0.0
 10
606.951171875
 20
136.7890625
 30
0.0
 10
623.3359375
 20
138.2861328125
 30
0.0
 10
639.7001953125
 20
139.7529296875
 30
0.0
 10
639.4208984375
 20
143.40625
 30
0.0
 10
650.6123046875
 20
155.7470703125
 30
0.0
  0
SPLINE
  5
54
330
48
100
AcDbEntity
  8
Ebene 1
370
     0
100
AcDbSpline
210
0.0
220
0.0
230
1.0
 70
    11
 71
     3
 72
    14
 73
    10
 74
     0
 42
0.0000000001
 43
0.0000000001
 40
0.0
 40
0.0
 40
0.0
 40
0.0
 40
1.0
 40
1.0
 40
1.0
 40
2.0
 40
2.0
 40
2.0
 40
3.0
 40
3.0
 40
3.0
 40
3.0
 10
637.125
 20
191.939453125
 30
0.0
 10
637.125
 20
191.939453125
 30
0.0
 10
640.0205078125
 20
226.705078125
 30
0.0
 10
615.0166015625
 20
224.1083984375
 30
0.0
 10
615.0166015625
 20
224.1083984375
 30
0.0
 10
592.8876953125
 20
224.982421875
 30
0.0
 10
591.166015625
 20
191.939453125
 30
0.0
 10
591.166015625
 20
191.939453125
 30
0.0
 10
637.125
 20
191.939453125
 30
0.0
 10
637.125
 20
191.939453125
 30
0.0
  0
HATCH
  5
55
330
48
100
AcDbEntity
  8
Ebene 1
 62
   253
420
 10592673
100
AcDbHatch
 10
0.0
 20
0.0
 30
0.0
210
0.0
220
0.0
230
1.0
  2
SOLID
 70
     1
 71
     0
 91
        2
 92
        1
 93
        1
 72
     4
 94
        3
 73
     0
 74
     1
 95
       29
 96
       25
 40
0.0
 40
0.0
 40
0.0
 40
0.0
 40
1.0
 40
1.0
 40
1.0
 40
2.0
 40
2.0
 40
2.0
 40
3.0
 40
3.0
 40
3.0
 40
4.0
 40
4.0
 40
4.0
 40
5.0
 40
5.0
 40
5.0
 40
6.0
 40
6.0
 40
6.0
 40
7.0
 40
7.0
 40
7.0
 40
8.0
 40
8.0
 40
8.0
 40
8.0
 10
650.6123046875
 20
155.7470703125
 10
661.828125
 20
168.109375
 10
660.3779296875
 20
153.17578125
 10
660.3779296875
 20
153.17578125
 10
650.0361328125
 20
123.8779296875
 10
615.8671875
 20
125.302734375
 10
615.8671875
 20
125.302734375
 10
567.314453125
 20
124.1982421875
 10
569.609375
 20
181.0263671875
 10
569.609375
 20
181.0263671875
 10
569.609375
 20
181.0263671875
 10
566.4619140625
 20
229.283203125
 10
617.015625
 20
232.48046875
 10
667.57421875
 20
235.6748046875
 10
657.8037109375
 20
182.7470703125
 10
657.8037109375
 20
182.7470703125
 10
657.8037109375
 20
182.7470703125
 10
591.166015625
 20
182.7470703125
 10
591.166015625
 20
182.7470703125
 10
588.5693359375
 20
153.17578125
 10
606.951171875
 20
136.7890625
 10
623.3359375
 20
138.2861328125
 10
639.7001953125
 20
139.7529296875
 10
639.4208984375
 20
143.40625
 10
650.6123046875
 20
155.7470703125
 97
        0
 92
        1
 93
        1
 72
     4
 94
        3
 73
     0
 74
     1
 95
       14
 96
       10
 40
0.0
 40
0.0
 40
0.0
 40
0.0
 40
1.0
 40
1.0
 40
1.0
 40
2.0
 40
2.0
 40
2.0
 40
3.0
 40
3.0
 40
3.0
 40
3.0
 10
637.125
 20
191.939453125
 10
637.125
 20
191.939453125
 10
640.0205078125
 20
226.705078125
 10
615.0166015625
 20
224.1083984375
 10
615.0166015625
 20
224.1083984375
 10
592.8876953125
 20
224.982421875
 10
591.166015625
 20
191.939453125
 10
591.166015625
 20
191.939453125
 10
637.125
 20
191.939453125
 10
637.125
 20
191.939453125
 97
        0
 75
     2
 76
     1
 98
        0
  0
SPLINE
  5
56
330
48
100
AcDbEntity
  8
Ebene 1
370
     0
100
AcDbSpline
210
0.0
220
0.0
230
1.0
 70
    11
 71
     3
 72
    38
 73
    34
 74
     0
 42
0.0000000001
 43
0.0000000001
 40
0.0
 40
0.0
 40
0.0
 40
0.0
 40
1.0
 40
1.0
 40
1.0
 40
2.0
 40
2.0
 40
2.0
 40
3.0
 40
3.0
 40
3.0
 40
4.0
 40
4.0
 40
4.0
 40
5.0
 40
5.0
 40
5.0
 40
6.0
 40
6.0
 40
6.0
 40
7.0
 40
7.0
 40
7.0
 40
8.0
 40
8.0
 40
8.0
 40
9.0
 40
9.0
 40
9.0
 40
10.0
 40
10.0
 40
10.0
 40
11.0
 40
11.0
 40
11.0
 40
11.0
 10
553.6884765625
 20
154.89453125
 30
0.0
 10
553.6884765625
 20
154.89453125
 30
0.0
 10
565.5009765625
 20
165.9033203125
 30
0.0
 10
559.3837890625
 20
148.2744140625
 30
0.0
 10
559.3837890625
 20
148.2744140625
 30
0.0
 10
547.896484375
 20
124.0576171875
 30
0.0
 10
518.0224609375
 20
126.3984375
 30
0.0
 10
488.150390625
 20
128.740234375
 30
0.0
 10
477.810546875
 20
142.9189453125
 30
0.0
 10
473.212890625
 20
175.84765625
 30
0.0
 10
468.6171875
 20
208.7998046875
 30
0.0
 10
493.8984375
 20
232.40234375
 30
0.0
 10
519.9296875
 20
232.4736328125
 30
0.0
 10
545.966796875
 20
232.5380859375
 30
0.0
 10
557.0869140625
 20
219.896484375
 30
0.0
 10
556.3056640625
 20
206.109375
 30
0.0
 10
555.546875
 20
192.3212890625
 30
0.0
 10
546.7470703125
 20
193.080078125
 30
0.0
 10
543.30078125
 20
193.080078125
 30
0.0
 10
539.8525390625
 20
193.080078125
 30
0.0
 10
530.271484375
 20
196.158203125
 30
0.0
 10
532.1787109375
 20
206.8681640625
 30
0.0
 10
534.1083984375
 20
217.6025390625
 30
0.0
 10
534.1083984375
 20
222.583984375
 30
0.0
 10
534.1083984375
 20
222.583984375
 30
0.0
 10
534.1083984375
 20
222.583984375
 30
0.0
 10
496.259765625
 20
237.0869140625
 30
0.0
 10
494.2626953125
 20
185.609375
 30
0.0
 10
492.26171875
 20
134.16015625
 30
0.0
 10
518.779296875
 20
138.2265625
 30
0.0
 10
524.1328125
 20
138.271484375
 30
0.0
 10
529.509765625
 20
138.3291015625
 30
0.0
 10
547.5498046875
 20
138.4189453125
 30
0.0
 10
553.6884765625
 20
154.89453125
 30
0.0
  0
HATCH
  5
57
330
48
100
AcDbEntity
  8
Ebene 1
 62
   253
420
 10592673
100
AcDbHatch
 10
0.0
 20
0.0
 30
0.0
210
0.0
220
0.0
230
1.0
  2
SOLID
 70
     1
 71
     0
 91
        1
 92
        1
 93
        1
 72
     4
 94
        3
 73
     0
 74
     1
 95
       38
 96
       34
 40
0.0
 40
0.0
 40
0.0
 40
0.0
 40
1.0
 40
1.0
 40
1.0
 40
2.0
 40
2.0
 40
2.0
 40
3.0
 40
3.0
 40
3.0
 40
4.0
 40
4.0
 40
4.0
 40
5.0
 40
5.0
 40
5.0
 40
6.0
 40
6.0
 40
6.0
 40
7.0
 40
7.0
 40
7.0
 40
8.0
 40
8.0
 40
8.0
 40
9.0
 40
9.0
 40
9.0
 40
10.0
 40
10.0
 40
10.0
 40
11.0
 40
11.0
 40
11.0
 40
11.0
 10
553.6884765625
 20
154.89453125
 10
553.6884765625
 20
154.89453125
 10
565.5009765625
 20
165.9033203125
 10
559.3837890625
 20
148.2744140625
 10
559.3837890625
 20
148.2744140625
 10
547.896484375
 20
124.0576171875
 10
518.0224609375
 20
126.3984375
 10
488.150390625
 20
128.740234375
 10
477.810546875
 20
142.9189453125
 10
473.212890625
 20
175.84765625
 10
468.6171875
 20
208.7998046875
 10
493.8984375
 20
232.40234375
 10
519.9296875
 20
232.4736328125
 10
545.966796875
 20
232.5380859375
 10
557.0869140625
 20
219.896484375
 10
556.3056640625
 20
206.109375
 10
555.546875
 20
192.3212890625
 10
546.7470703125
 20
193.080078125
 10
543.30078125
 20
193.080078125
 10
539.8525390625
 20
193.080078125
 10
530.271484375
 20
196.158203125
 10
532.1787109375
 20
206.8681640625
 10
534.1083984375
 20
217.6025390625
 10
534.1083984375
 20
222.583984375
 10
534.1083984375
 20
222.583984375
 10
534.1083984375
 20
222.583984375
 10
496.259765625
 20
237.0869140625
 10
494.2626953125
 20
185.609375
 10
492.26171875
 20
134.16015625
 10
518.779296875
 20
138.2265625
 10
524.1328125
 20
138.271484375
 10
529.509765625
 20
138.3291015625
 10
547.5498046875
 20
138.4189453125
 10
553.6884765625
 20
154.89453125
 97
        0
 75
     2
 76
     1
 98
        0
  0
SPLINE
  5
58
330
48
100
AcDbEntity
  8
Ebene 1
370
     0
100
AcDbSpline
210
0.0
220
0.0
230
1.0
 70
    11
 71
     3
 72
    44
 73
    40
 74
     0
 42
0.0000000001
 43
0.0000000001
 40
0.0
 40
0.0
 40
0.0
 40
0.0
 40
1.0
 40
1.0
 40
1.0
 40
2.0
 40
2.0
 40
2.0
 40
3.0
 40
3.0
 40
3.0
 40
4.0
 40
4.0
 40
4.0
 40
5.0
 40
5.0
 40
5.0
 40
6.0
 40
6.0
 40
6.0
 40
7.0
 40
7.0
 40
7.0
 40
8.0
 40
8.0
 40
8.0
 40
9.0
 40
9.0
 40
9.0
 40
10.0
 40
10.0
 40
10.0
 40
11.0
 40
11.0
 40
11.0
 40
12.0
 40
12.0
 40
12.0
 40
13.0
 40
13.0
 40
13.0
 40
13.0
 10
463.6279296875
 20
135.9375
 30
0.0
 10
463.6279296875
 20
135.9375
 30
0.0
 10
463.6279296875
 20
128.7451171875
 30
0.0
 10
463.6279296875
 20
128.7451171875
 30
0.0
 10
463.6279296875
 20
128.7451171875
 30
0.0
 10
433.181640625
 20
115.5322265625
 30
0.0
 10
429.1591796875
 20
140.8115234375
 30
0.0
 10
429.1591796875
 20
140.8115234375
 30
0.0
 10
382.744140625
 20
104.5947265625
 30
0.0
 10
369.1416015625
 20
146.7607421875
 30
0.0
 10
369.02490234375
 20
147.0849609375
 30
0.0
 10
368.93212890625
 20
147.384765625
 30
0.0
 10
368.8408203125
 20
147.70703125
 30
0.0
 10
368.8408203125
 20
147.70703125
 30
0.0
 10
357.626953125
 20
178.4521484375
 30
0.0
 10
425.9921875
 20
193.9638671875
 30
0.0
 10
425.9921875
 20
193.9638671875
 30
0.0
 10
435.4814453125
 20
223.8369140625
 30
0.0
 10
410.482421875
 20
224.41015625
 30
0.0
 10
410.482421875
 20
224.41015625
 30
0.0
 10
388.65185546875
 20
222.962890625
 30
0.0
 10
395.54541015625
 20
215.4951171875
 30
0.0
 10
395.54541015625
 20
215.4951171875
 30
0.0
 10
403.5859375
 20
197.9853515625
 30
0.0
 10
383.34521484375
 20
197.9853515625
 30
0.0
 10
383.34521484375
 20
197.9853515625
 30
0.0
 10
373.37109375
 20
196.2626953125
 30
0.0
 10
372.4990234375
 20
210.623046875
 30
0.0
 10
371.6494140625
 20
224.9853515625
 30
0.0
 10
395.958984375
 20
233.0283203125
 30
0.0
 10
410.896484375
 20
232.453125
 30
0.0
 10
425.833984375
 20
231.880859375
 30
0.0
 10
445.24609375
 20
233.3037109375
 30
0.0
 10
447.548828125
 20
210.0478515625
 30
0.0
 10
447.548828125
 20
210.0478515625
 30
0.0
 10
447.548828125
 20
147.130859375
 30
0.0
 10
447.548828125
 20
147.130859375
 30
0.0
 10
447.546875
 20
147.12890625
 30
0.0
 10
447.546875
 20
134.7890625
 30
0.0
 10
463.6279296875
 20
135.9375
 30
0.0
  0
SPLINE
  5
59
330
48
100
AcDbEntity
  8
Ebene 1
370
     0
100
AcDbSpline
210
0.0
220
0.0
230
1.0
 70
    11
 71
     3
 72
    14
 73
    10
 74
     0
 42
0.0000000001
 43
0.0000000001
 40
0.0
 40
0.0
 40
0.0
 40
0.0
 40
1.0
 40
1.0
 40
1.0
 40
2.0
 40
2.0
 40
2.0
 40
3.0
 40
3.0
 40
3.0
 40
3.0
 10
429.1591796875
 20
154.0234375
 30
0.0
 10
429.1591796875
 20
154.0234375
 30
0.0
 10
429.1591796875
 20
185.6455078125
 30
0.0
 10
429.1591796875
 20
185.6455078125
 30
0.0
 10
385.5009765625
 20
175.3056640625
 30
0.0
 10
389.79931640625
 20
155.61328125
 30
0.0
 10
389.79931640625
 20
155.61328125
 30
0.0
 10
388.9482421875
 20
117.5556640625
 30
0.0
 10
429.1591796875
 20
154.0234375
 30
0.0
 10
429.1591796875
 20
154.0234375
 30
0.0
  0
HATCH
  5
5A
330
48
100
AcDbEntity
  8
Ebene 1
 62
   253
420
 10592673
100
AcDbHatch
 10
0.0
 20
0.0
 30
0.0
210
0.0
220
0.0
230
1.0
  2
SOLID
 70
     1
 71
     0
 91
        2
 92
        1
 93
        1
 72
     4
 94
        3
 73
     0
 74
     1
 95
       44
 96
       40
 40
0.0
 40
0.0
 40
0.0
 40
0.0
 40
1.0
 40
1.0
 40
1.0
 40
2.0
 40
2.0
 40
2.0
 40
3.0
 40
3.0
 40
3.0
 40
4.0
 40
4.0
 40
4.0
 40
5.0
 40
5.0
 40
5.0
 40
6.0
 40
6.0
 40
6.0
 40
7.0
 40
7.0
 40
7.0
 40
8.0
 40
8.0
 40
8.0
 40
9.0
 40
9.0
 40
9.0
 40
10.0
 40
10.0
 40
10.0
 40
11.0
 40
11.0
 40
11.0
 40
12.0
 40
12.0
 40
12.0
 40
13.0
 40
13.0
 40
13.0
 40
13.0
 10
463.6279296875
 20
135.9375
 10
463.6279296875
 20
135.9375
 10
463.6279296875
 20
128.7451171875
 10
463.6279296875
 20
128.7451171875
 10
463.6279296875
 20
128.7451171875
 10
433.181640625
 20
115.5322265625
 10
429.1591796875
 20
140.8115234375
 10
429.1591796875
 20
140.8115234375
 10
382.744140625
 20
104.5947265625
 10
369.1416015625
 20
146.7607421875
 10
369.02490234375
 20
147.0849609375
 10
368.93212890625
 20
147.384765625
 10
368.8408203125
 20
147.70703125
 10
368.8408203125
 20
147.70703125
 10
357.626953125
 20
178.4521484375
 10
425.9921875
 20
193.9638671875
 10
425.9921875
 20
193.9638671875
 10
435.4814453125
 20
223.8369140625
 10
410.482421875
 20
224.41015625
 10
410.482421875
 20
224.41015625
 10
388.65185546875
 20
222.962890625
 10
395.54541015625
 20
215.4951171875
 10
395.54541015625
 20
215.4951171875
 10
403.5859375
 20
197.9853515625
 10
383.34521484375
 20
197.9853515625
 10
383.34521484375
 20
197.9853515625
 10
373.37109375
 20
196.2626953125
 10
372.4990234375
 20
210.623046875
 10
371.6494140625
 20
224.9853515625
 10
395.958984375
 20
233.0283203125
 10
410.896484375
 20
232.453125
 10
425.833984375
 20
231.880859375
 10
445.24609375
 20
233.3037109375
 10
447.548828125
 20
210.0478515625
 10
447.548828125
 20
210.0478515625
 10
447.548828125
 20
147.130859375
 10
447.548828125
 20
147.130859375
 10
447.546875
 20
147.12890625
 10
447.546875
 20
134.7890625
 10
463.6279296875
 20
135.9375
 97
        0
 92
        1
 93
        1
 72
     4
 94
        3
 73
     0
 74
     1
 95
       14
 96
       10
 40
0.0
 40
0.0
 40
0.0
 40
0.0
 40
1.0
 40
1.0
 40
1.0
 40
2.0
 40
2.0
 40
2.0
 40
3.0
 40
3.0
 40
3.0
 40
3.0
 10
429.1591796875
 20
154.0234375
 10
429.1591796875
 20
154.0234375
 10
429.1591796875
 20
185.6455078125
 10
429.1591796875
 20
185.6455078125
 10
385.5009765625
 20
175.3056640625
 10
389.79931640625
 20
155.61328125
 10
389.79931640625
 20
155.61328125
 10
388.9482421875
 20
117.5556640625
 10
429.1591796875
 20
154.0234375
 10
429.1591796875
 20
154.0234375
 97
        0
 75
     2
 76
     1
 98
        0
  0
ENDBLK
  5
4B
330
48
100
AcDbEntity
  8
0
100
AcDbBlockEnd
  0
BLOCK
  5
5D
330
5B
100
AcDbEntity
  8
0
100
AcDbBlockBegin
  2
block 6
 70
     0
 71
     0
 10
0.0
 20
0.0
 30
0.0
  3
block 6
  1

  0
INSERT
  5
60
330
5B
100
AcDbEntity
  8
Ebene 1
100
AcDbBlockReference
  2
block 7
 10
0.0
 20
0.0
 30
0.0
  0
ENDBLK
  5
5E
330
5B
100
AcDbEntity
  8
0
100
AcDbBlockEnd
  0
BLOCK
  5
61
330
5F
100
AcDbEntity
  8
0
100
AcDbBlockBegin
  2
block 7
 70
     0
 71
     0
 10
0.0
 20
0.0
 30
0.0
  3
block 7
  1

  0
SPLINE
  5
63
330
5F
100
AcDbEntity
  8
Ebene 1
370
     0
100
AcDbSpline
210
0.0
220
0.0
230
1.0
 70
    11
 71
     3
 72
    32
 73
    28
 74
     0
 42
0.0000000001
 43
0.0000000001
 40
0.0
 40
0.0
 40
0.0
 40
0.0
 40
1.0
 40
1.0
 40
1.0
 40
2.0
 40
2.0
 40
2.0
 40
3.0
 40
3.0
 40
3.0
 40
4.0
 40
4.0
 40
4.0
 40
5.0
 40
5.0
 40
5.0
 40
6.0
 40
6.0
 40
6.0
 40
7.0
 40
7.0
 40
7.0
 40
8.0
 40
8.0
 40
8.0
 40
9.0
 40
9.0
 40
9.0
 40
9.0
 10
157.71484375
 20
211.767578125
 30
0.0
 10
158.1494140625
 20
117.599609375
 30
0.0
 10
37.37255859375
 20
126.4462890625
 30
0.0
 10
37.37255859375
 20
126.4462890625
 30
0.0
 10
37.37255859375
 20
126.4462890625
 30
0.0
 10
24.4609375
 20
126.330078125
 30
0.0
 10
24.4609375
 20
126.330078125
 30
0.0
 10
24.4609375
 20
126.330078125
 30
0.0
 10
24.4609375
 20
127.52734375
 30
0.0
 10
24.4609375
 20
127.52734375
 30
0.0
 10
24.4609375
 20
127.52734375
 30
0.0
 10
24.4609375
 20
143.2890625
 30
0.0
 10
24.4609375
 20
143.2890625
 30
0.0
 10
28.66455078125
 20
143.220703125
 30
0.0
 10
33.421875
 20
143.4287109375
 30
0.0
 10
38.79931640625
 20
143.978515625
 30
0.0
 10
56.83740234375
 20
145.818359375
 30
0.0
 10
77.587890625
 20
151.72265625
 30
0.0
 10
89.078125
 20
167.8095703125
 30
0.0
 10
107.4609375
 20
199.978515625
 30
0.0
 10
107.439453125
 20
248.5087890625
 30
0.0
 10
74.76123046875
 20
273.697265625
 30
0.0
 10
74.76123046875
 20
273.697265625
 30
0.0
 10
105.875
 20
287.9921875
 30
0.0
 10
105.875
 20
287.9921875
 30
0.0
 10
105.875
 20
287.98828125
 30
0.0
 10
157.44091796875
 20
277.2587890625
 30
0.0
 10
157.71484375
 20
211.767578125
 30
0.0
  0
HATCH
  5
64
330
5F
100
AcDbEntity
  8
Ebene 1
 62
   183
420
  8287457
100
AcDbHatch
 10
0.0
 20
0.0
 30
0.0
210
0.0
220
0.0
230
1.0
  2
SOLID
 70
     1
 71
     0
 91
        1
 92
        1
 93
        1
 72
     4
 94
        3
 73
     0
 74
     1
 95
       32
 96
       28
 40
0.0
 40
0.0
 40
0.0
 40
0.0
 40
1.0
 40
1.0
 40
1.0
 40
2.0
 40
2.0
 40
2.0
 40
3.0
 40
3.0
 40
3.0
 40
4.0
 40
4.0
 40
4.0
 40
5.0
 40
5.0
 40
5.0
 40
6.0
 40
6.0
 40
6.0
 40
7.0
 40
7.0
 40
7.0
 40
8.0
 40
8.0
 40
8.0
 40
9.0
 40
9.0
 40
9.0
 40
9.0
 10
157.71484375
 20
211.767578125
 10
158.1494140625
 20
117.599609375
 10
37.37255859375
 20
126.4462890625
 10
37.37255859375
 20
126.4462890625
 10
37.37255859375
 20
126.4462890625
 10
24.4609375
 20
126.330078125
 10
24.4609375
 20
126.330078125
 10
24.4609375
 20
126.330078125
 10
24.4609375
 20
127.52734375
 10
24.4609375
 20
127.52734375
 10
24.4609375
 20
127.52734375
 10
24.4609375
 20
143.2890625
 10
24.4609375
 20
143.2890625
 10
28.66455078125
 20
143.220703125
 10
33.421875
 20
143.4287109375
 10
38.79931640625
 20
143.978515625
 10
56.83740234375
 20
145.818359375
 10
77.587890625
 20
151.72265625
 10
89.078125
 20
167.8095703125
 10
107.4609375
 20
199.978515625
 10
107.439453125
 20
248.5087890625
 10
74.76123046875
 20
273.697265625
 10
74.76123046875
 20
273.697265625
 10
105.875
 20
287.9921875
 10
105.875
 20
287.9921875
 10
105.875
 20
287.98828125
 10
157.44091796875
 20
277.2587890625
 10
157.71484375
 20
211.767578125
 97
        0
 75
     2
 76
     1
 98
        0
  0
SPLINE
  5
65
330
5F
100
AcDbEntity
  8
Ebene 1
370
     0
100
AcDbSpline
210
0.0
220
0.0
230
1.0
 70
    11
 71
     3
 72
    50
 73
    46
 74
     0
 42
0.0000000001
 43
0.0000000001
 40
0.0
 40
0.0
 40
0.0
 40
0.0
 40
1.0
 40
1.0
 40
1.0
 40
2.0
 40
2.0
 40
2.0
 40
3.0
 40
3.0
 40
3.0
 40
4.0
 40
4.0
 40
4.0
 40
5.0
 40
5.0
 40
5.0
 40
6.0
 40
6.0
 40
6.0
 40
7.0
 40
7.0
 40
7.0
 40
8.0
 40
8.0
 40
8.0
 40
9.0
 40
9.0
 40
9.0
 40
10.0
 40
10.0
 40
10.0
 40
11.0
 40
11.0
 40
11.0
 40
12.0
 40
12.0
 40
12.0
 40
13.0
 40
13.0
 40
13.0
 40
14.0
 40
14.0
 40
14.0
 40
15.0
 40
15.0
 40
15.0
 40
15.0
 10
146.2255859375
 20
368.8740234375
 30
0.0
 10
146.2255859375
 20
368.8740234375
 30
0.0
 10
151.9697265625
 20
314.52978515625
 30
0.0
 10
105.87255859375
 20
287.98828125
 30
0.0
 10
105.87255859375
 20
287.98828125
 30
0.0
 10
74.7587890625
 20
273.69140625
 30
0.0
 10
74.7587890625
 20
273.69140625
 30
0.0
 10
74.7587890625
 20
273.69140625
 30
0.0
 10
59.7763671875
 20
264.314453125
 30
0.0
 10
-8.19580078125
 20
266.6162109375
 30
0.0
 10
-8.19580078125
 20
266.6162109375
 30
0.0
 10
-8.19580078125
 20
161.119140625
 30
0.0
 10
-8.19580078125
 20
161.119140625
 30
0.0
 10
-8.19580078125
 20
161.119140625
 30
0.0
 10
-8.9541015625
 20
143.7431640625
 30
0.0
 10
24.45849609375
 20
143.28515625
 30
0.0
 10
24.45849609375
 20
143.28515625
 30
0.0
 10
24.45849609375
 20
127.525390625
 30
0.0
 10
24.45849609375
 20
127.525390625
 30
0.0
 10
24.45849609375
 20
127.525390625
 30
0.0
 10
24.45849609375
 20
126.326171875
 30
0.0
 10
24.45849609375
 20
126.326171875
 30
0.0
 10
24.45849609375
 20
126.326171875
 30
0.0
 10
-98.779296875
 20
125.29296875
 30
0.0
 10
-98.779296875
 20
125.29296875
 30
0.0
 10
-98.779296875
 20
125.29296875
 30
0.0
 10
-98.595703125
 20
144.6396484375
 30
0.0
 10
-98.595703125
 20
144.6396484375
 30
0.0
 10
-50.70703125
 20
141.193359375
 30
0.0
 10
-56.8427734375
 20
167.8017578125
 30
0.0
 10
-56.8427734375
 20
167.8017578125
 30
0.0
 10
-56.8427734375
 20
167.8017578125
 30
0.0
 10
-56.8427734375
 20
408.23583984375
 30
0.0
 10
-56.8427734375
 20
408.23583984375
 30
0.0
 10
-56.84130859375
 20
429.19140625
 30
0.0
 10
-100.50146484375
 20
427.46826171875
 30
0.0
 10
-100.50146484375
 20
427.46826171875
 30
0.0
 10
-100.50146484375
 20
427.46826171875
 30
0.0
 10
-100.50146484375
 20
444.70263671875
 30
0.0
 10
-100.50146484375
 20
444.70263671875
 30
0.0
 10
-100.50146484375
 20
444.70263671875
 30
0.0
 10
59.20361328125
 20
444.70263671875
 30
0.0
 10
59.20361328125
 20
444.70263671875
 30
0.0
 10
59.2060546875
 20
444.70361328125
 30
0.0
 10
135.88525390625
 20
451.59912109375
 30
0.0
 10
146.2255859375
 20
368.8740234375
 30
0.0
  0
SPLINE
  5
66
330
5F
100
AcDbEntity
  8
Ebene 1
370
     0
100
AcDbSpline
210
0.0
220
0.0
230
1.0
 70
    11
 71
     3
 72
    14
 73
    10
 74
     0
 42
0.0000000001
 43
0.0000000001
 40
0.0
 40
0.0
 40
0.0
 40
0.0
 40
1.0
 40
1.0
 40
1.0
 40
2.0
 40
2.0
 40
2.0
 40
3.0
 40
3.0
 40
3.0
 40
3.0
 10
-8.58349609375
 20
287.98828125
 30
0.0
 10
-8.58349609375
 20
287.98828125
 30
0.0
 10
92.1328125
 20
274.95703125
 30
0.0
 10
88.1142578125
 20
358.5322265625
 30
0.0
 10
84.09228515625
 20
442.13232421875
 30
0.0
 10
18.9912109375
 20
425.171875
 30
0.0
 10
-8.58349609375
 20
426.896484375
 30
0.0
 10
-8.58349609375
 20
426.896484375
 30
0.0
 10
-8.58349609375
 20
287.98828125
 30
0.0
 10
-8.58349609375
 20
287.98828125
 30
0.0
  0
HATCH
  5
67
330
5F
100
AcDbEntity
  8
Ebene 1
 62
    52
420
 12047104
100
AcDbHatch
 10
0.0
 20
0.0
 30
0.0
210
0.0
220
0.0
230
1.0
  2
SOLID
 70
     1
 71
     0
 91
        2
 92
        1
 93
        1
 72
     4
 94
        3
 73
     0
 74
     1
 95
       50
 96
       46
 40
0.0
 40
0.0
 40
0.0
 40
0.0
 40
1.0
 40
1.0
 40
1.0
 40
2.0
 40
2.0
 40
2.0
 40
3.0
 40
3.0
 40
3.0
 40
4.0
 40
4.0
 40
4.0
 40
5.0
 40
5.0
 40
5.0
 40
6.0
 40
6.0
 40
6.0
 40
7.0
 40
7.0
 40
7.0
 40
8.0
 40
8.0
 40
8.0
 40
9.0
 40
9.0
 40
9.0
 40
10.0
 40
10.0
 40
10.0
 40
11.0
 40
11.0
 40
11.0
 40
12.0
 40
12.0
 40
12.0
 40
13.0
 40
13.0
 40
13.0
 40
14.0
 40
14.0
 40
14.0
 40
15.0
 40
15.0
 40
15.0
 40
15.0
 10
146.2255859375
 20
368.8740234375
 10
146.2255859375
 20
368.8740234375
 10
151.9697265625
 20
314.52978515625
 10
105.87255859375
 20
287.98828125
 10
105.87255859375
 20
287.98828125
 10
74.7587890625
 20
273.69140625
 10
74.7587890625
 20
273.69140625
 10
74.7587890625
 20
273.69140625
 10
59.7763671875
 20
264.314453125
 10
-8.19580078125
 20
266.6162109375
 10
-8.19580078125
 20
266.6162109375
 10
-8.19580078125
 20
161.119140625
 10
-8.19580078125
 20
161.119140625
 10
-8.19580078125
 20
161.119140625
 10
-8.9541015625
 20
143.7431640625
 10
24.45849609375
 20
143.28515625
 10
24.45849609375
 20
143.28515625
 10
24.45849609375
 20
127.525390625
 10
24.45849609375
 20
127.525390625
 10
24.45849609375
 20
127.525390625
 10
24.45849609375
 20
126.326171875
 10
24.45849609375
 20
126.326171875
 10
24.45849609375
 20
126.326171875
 10
-98.779296875
 20
125.29296875
 10
-98.779296875
 20
125.29296875
 10
-98.779296875
 20
125.29296875
 10
-98.595703125
 20
144.6396484375
 10
-98.595703125
 20
144.6396484375
 10
-50.70703125
 20
141.193359375
 10
-56.8427734375
 20
167.8017578125
 10
-56.8427734375
 20
167.8017578125
 10
-56.8427734375
 20
167.8017578125
 10
-56.8427734375
 20
408.23583984375
 10
-56.8427734375
 20
408.23583984375
 10
-56.84130859375
 20
429.19140625
 10
-100.50146484375
 20
427.46826171875
 10
-100.50146484375
 20
427.46826171875
 10
-100.50146484375
 20
427.46826171875
 10
-100.50146484375
 20
444.70263671875
 10
-100.50146484375
 20
444.70263671875
 10
-100.50146484375
 20
444.70263671875
 10
59.20361328125
 20
444.70263671875
 10
59.20361328125
 20
444.70263671875
 10
59.2060546875
 20
444.70361328125
 10
135.88525390625
 20
451.59912109375
 10
146.2255859375
 20
368.8740234375
 97
        0
 92
        1
 93
        1
 72
     4
 94
        3
 73
     0
 74
     1
 95
       14
 96
       10
 40
0.0
 40
0.0
 40
0.0
 40
0.0
 40
1.0
 40
1.0
 40
1.0
 40
2.0
 40
2.0
 40
2.0
 40
3.0
 40
3.0
 40
3.0
 40
3.0
 10
-8.58349609375
 20
287.98828125
 10
-8.58349609375
 20
287.98828125
 10
92.1328125
 20
274.95703125
 10
88.1142578125
 20
358.5322265625
 10
84.09228515625
 20
442.13232421875
 10
18.9912109375
 20
425.171875
 10
-8.58349609375
 20
426.896484375
 10
-8.58349609375
 20
426.896484375
 10
-8.58349609375
 20
287.98828125
 10
-8.58349609375
 20
287.98828125
 97
        0
 75
     2
 76
     1
 98
        0
  0
ENDBLK
  5
62
330
5F
100
AcDbEntity
  8
0
100
AcDbBlockEnd
  0
BLOCK
  5
6A
330
68
100
AcDbEntity
  8
0
100
AcDbBlockBegin
  2
block 8
 70
     0
 71
     0
 10
0.0
 20
0.0
 30
0.0
  3
block 8
  1

  0
INSERT
  5
6D
330
68
100
AcDbEntity
  8
Ebene 1
100
AcDbBlockReference
  2
block 9
 10
0.0
 20
0.0
 30
0.0
  0
ENDBLK
  5
6B
330
68
100
AcDbEntity
  8
0
100
AcDbBlockEnd
  0
BLOCK
  5
6E
330
6C
100
AcDbEntity
  8
0
100
AcDbBlockBegin
  2
block 9
 70
     0
 71
     0
 10
0.0
 20
0.0
 30
0.0
  3
block 9
  1

  0
INSERT
  5
71
330
6C
100
AcDbEntity
  8
Ebene 1
100
AcDbBlockReference
  2
block 10
 10
0.0
 20
0.0
 30
0.0
  0
ENDBLK
  5
6F
330
6C
100
AcDbEntity
  8
0
100
AcDbBlockEnd
  0
BLOCK
  5
72
330
70
100
AcDbEntity
  8
0
100
AcDbBlockBegin
  2
block 10
 70
     0
 71
     0
 10
0.0
 20
0.0
 30
0.0
  3
block 10
  1

  0
SPLINE
  5
74
330
70
100
AcDbEntity
  8
Ebene 1
370
     0
100
AcDbSpline
210
0.0
220
0.0
230
1.0
 70
    11
 71
     3
 72
    59
 73
    55
 74
     0
 42
0.0000000001
 43
0.0000000001
 40
0.0
 40
0.0
 40
0.0
 40
0.0
 40
1.0
 40
1.0
 40
1.0
 40
2.0
 40
2.0
 40
2.0
 40
3.0
 40
3.0
 40
3.0
 40
4.0
 40
4.0
 40
4.0
 40
5.0
 40
5.0
 40
5.0
 40
6.0
 40
6.0
 40
6.0
 40
7.0
 40
7.0
 40
7.0
 40
8.0
 40
8.0
 40
8.0
 40
9.0
 40
9.0
 40
9.0
 40
10.0
 40
10.0
 40
10.0
 40
11.0
 40
11.0
 40
11.0
 40
12.0
 40
12.0
 40
12.0
 40
13.0
 40
13.0
 40
13.0
 40
14.0
 40
14.0
 40
14.0
 40
15.0
 40
15.0
 40
15.0
 40
16.0
 40
16.0
 40
16.0
 40
17.0
 40
17.0
 40
17.0
 40
18.0
 40
18.0
 40
18.0
 40
18.0
 10
359.57568359375
 20
322.056640625
 30
0.0
 10
362.72265625
 20
290.4599609375
 30
0.0
 10
334.298828125
 20
291.3095703125
 30
0.0
 10
334.298828125
 20
291.3095703125
 30
0.0
 10
299.25439453125
 20
289.884765625
 30
0.0
 10
310.7421875
 20
327.50244140625
 30
0.0
 10
310.7421875
 20
327.50244140625
 30
0.0
 10
284.01611328125
 20
328.375
 30
0.0
 10
264.78466796875
 20
296.4794921875
 30
0.0
 10
264.78466796875
 20
296.4794921875
 30
0.0
 10
264.78466796875
 20
296.4794921875
 30
0.0
 10
264.78466796875
 20
162.921875
 30
0.0
 10
264.78466796875
 20
162.921875
 30
0.0
 10
267.08349609375
 20
135.625
 30
0.0
 10
306.14599609375
 20
142.5185546875
 30
0.0
 10
306.14599609375
 20
142.5185546875
 30
0.0
 10
306.14599609375
 20
142.5185546875
 30
0.0
 10
306.14599609375
 20
125.2841796875
 30
0.0
 10
306.14599609375
 20
125.2841796875
 30
0.0
 10
306.14599609375
 20
125.2841796875
 30
0.0
 10
190.10107421875
 20
125.2841796875
 30
0.0
 10
190.10107421875
 20
125.2841796875
 30
0.0
 10
190.10107421875
 20
125.2841796875
 30
0.0
 10
189.5283203125
 20
142.2451171875
 30
0.0
 10
189.5283203125
 20
142.2451171875
 30
0.0
 10
219.0986328125
 20
138.7978515625
 30
0.0
 10
221.6962890625
 20
155.1572265625
 30
0.0
 10
221.6962890625
 20
155.1572265625
 30
0.0
 10
221.6962890625
 20
155.1572265625
 30
0.0
 10
221.3984375
 20
307.11865234375
 30
0.0
 10
221.3984375
 20
307.11865234375
 30
0.0
 10
216.22900390625
 20
333.81982421875
 30
0.0
 10
186.6572265625
 20
330.9501953125
 30
0.0
 10
186.6572265625
 20
330.9501953125
 30
0.0
 10
186.6572265625
 20
330.9501953125
 30
0.0
 10
186.6572265625
 20
347.90673828125
 30
0.0
 10
186.6572265625
 20
347.90673828125
 30
0.0
 10
186.6572265625
 20
347.90673828125
 30
0.0
 10
222.27587890625
 20
348.1845703125
 30
0.0
 10
222.27587890625
 20
348.1845703125
 30
0.0
 10
222.27587890625
 20
348.1845703125
 30
0.0
 10
264.7861328125
 20
348.1845703125
 30
0.0
 10
264.7861328125
 20
348.1845703125
 30
0.0
 10
264.7861328125
 20
348.1845703125
 30
0.0
 10
264.7861328125
 20
347.0341796875
 30
0.0
 10
264.7861328125
 20
347.0341796875
 30
0.0
 10
264.7861328125
 20
347.0341796875
 30
0.0
 10
264.7861328125
 20
318.03466796875
 30
0.0
 10
264.7861328125
 20
318.03466796875
 30
0.0
 10
287.7666015625
 20
351.62939453125
 30
0.0
 10
322.9453125
 20
354.2265625
 30
0.0
 10
328.69189453125
 20
354.5029296875
 30
0.0
 10
334.435546875
 20
354.79931640625
 30
0.0
 10
356.4033203125
 20
353.6533203125
 30
0.0
 10
359.57568359375
 20
322.056640625
 30
0.0
  0
HATCH
  5
75
330
70
100
AcDbEntity
  8
Ebene 1
 62
   183
420
  8287457
100
AcDbHatch
 10
0.0
 20
0.0
 30
0.0
210
0.0
220
0.0
230
1.0
  2
SOLID
 70
     1
 71
     0
 91
        1
 92
        1
 93
        1
 72
     4
 94
        3
 73
     0
 74
     1
 95
       59
 96
       55
 40
0.0
 40
0.0
 40
0.0
 40
0.0
 40
1.0
 40
1.0
 40
1.0
 40
2.0
 40
2.0
 40
2.0
 40
3.0
 40
3.0
 40
3.0
 40
4.0
 40
4.0
 40
4.0
 40
5.0
 40
5.0
 40
5.0
 40
6.0
 40
6.0
 40
6.0
 40
7.0
 40
7.0
 40
7.0
 40
8.0
 40
8.0
 40
8.0
 40
9.0
 40
9.0
 40
9.0
 40
10.0
 40
10.0
 40
10.0
 40
11.0
 40
11.0
 40
11.0
 40
12.0
 40
12.0
 40
12.0
 40
13.0
 40
13.0
 40
13.0
 40
14.0
 40
14.0
 40
14.0
 40
15.0
 40
15.0
 40
15.0
 40
16.0
 40
16.0
 40
16.0
 40
17.0
 40
17.0
 40
17.0
 40
18.0
 40
18.0
 40
18.0
 40
18.0
 10
359.57568359375
 20
322.056640625
 10
362.72265625
 20
290.4599609375
 10
334.298828125
 20
291.3095703125
 10
334.298828125
 20
291.3095703125
 10
299.25439453125
 20
289.884765625
 10
310.7421875
 20
327.50244140625
 10
310.7421875
 20
327.50244140625
 10
284.01611328125
 20
328.375
 10
264.78466796875
 20
296.4794921875
 10
264.78466796875
 20
296.4794921875
 10
264.78466796875
 20
296.4794921875
 10
264.78466796875
 20
162.921875
 10
264.78466796875
 20
162.921875
 10
267.08349609375
 20
135.625
 10
306.14599609375
 20
142.5185546875
 10
306.14599609375
 20
142.5185546875
 10
306.14599609375
 20
142.5185546875
 10
306.14599609375
 20
125.2841796875
 10
306.14599609375
 20
125.2841796875
 10
306.14599609375
 20
125.2841796875
 10
190.10107421875
 20
125.2841796875
 10
190.10107421875
 20
125.2841796875
 10
190.10107421875
 20
125.2841796875
 10
189.5283203125
 20
142.2451171875
 10
189.5283203125
 20
142.2451171875
 10
219.0986328125
 20
138.7978515625
 10
221.6962890625
 20
155.1572265625
 10
221.6962890625
 20
155.1572265625
 10
221.6962890625
 20
155.1572265625
 10
221.3984375
 20
307.11865234375
 10
221.3984375
 20
307.11865234375
 10
216.22900390625
 20
333.81982421875
 10
186.6572265625
 20
330.9501953125
 10
186.6572265625
 20
330.9501953125
 10
186.6572265625
 20
330.9501953125
 10
186.6572265625
 20
347.90673828125
 10
186.6572265625
 20
347.90673828125
 10
186.6572265625
 20
347.90673828125
 10
222.27587890625
 20
348.1845703125
 10
222.27587890625
 20
348.1845703125
 10
222.27587890625
 20
348.1845703125
 10
264.7861328125
 20
348.1845703125
 10
264.7861328125
 20
348.1845703125
 10
264.7861328125
 20
348.1845703125
 10
264.7861328125
 20
347.0341796875
 10
264.7861328125
 20
347.0341796875
 10
264.7861328125
 20
347.0341796875
 10
264.7861328125
 20
318.03466796875
 10
264.7861328125
 20
318.03466796875
 10
287.7666015625
 20
351.62939453125
 10
322.9453125
 20
354.2265625
 10
328.69189453125
 20
354.5029296875
 10
334.435546875
 20
354.79931640625
 10
356.4033203125
 20
353.6533203125
 10
359.57568359375
 20
322.056640625
 97
        0
 75
     2
 76
     1
 98
        0
  0
SPLINE
  5
76
330
70
100
AcDbEntity
  8
Ebene 1
370
     0
100
AcDbSpline
210
0.0
220
0.0
230
1.0
 70
    11
 71
     3
 72
    23
 73
    19
 74
     0
 42
0.0000000001
 43
0.0000000001
 40
0.0
 40
0.0
 40
0.0
 40
0.0
 40
1.0
 40
1.0
 40
1.0
 40
2.0
 40
2.0
 40
2.0
 40
3.0
 40
3.0
 40
3.0
 40
4.0
 40
4.0
 40
4.0
 40
5.0
 40
5.0
 40
5.0
 40
6.0
 40
6.0
 40
6.0
 40
6.0
 10
264.7861328125
 20
475.71728515625
 30
0.0
 10
264.7861328125
 20
475.71728515625
 30
0.0
 10
264.7861328125
 20
348.1806640625
 30
0.0
 10
264.7861328125
 20
348.1806640625
 30
0.0
 10
264.7861328125
 20
348.1806640625
 30
0.0
 10
222.27587890625
 20
348.1806640625
 30
0.0
 10
222.27587890625
 20
348.1806640625
 30
0.0
 10
222.27587890625
 20
348.1806640625
 30
0.0
 10
222.27587890625
 20
423.64404296875
 30
0.0
 10
222.27587890625
 20
423.64404296875
 30
0.0
 10
223.03173828125
 20
458.8720703125
 30
0.0
 10
179.7646484375
 20
452.73486328125
 30
0.0
 10
179.7646484375
 20
452.73486328125
 30
0.0
 10
179.7646484375
 20
452.73486328125
 30
0.0
 10
179.7646484375
 20
470.75146484375
 30
0.0
 10
179.7646484375
 20
470.75146484375
 30
0.0
 10
209.63818359375
 20
468.45263671875
 30
0.0
 10
264.7861328125
 20
475.71728515625
 30
0.0
 10
264.7861328125
 20
475.71728515625
 30
0.0
  0
HATCH
  5
77
330
70
100
AcDbEntity
  8
Ebene 1
 62
    52
420
 12047104
100
AcDbHatch
 10
0.0
 20
0.0
 30
0.0
210
0.0
220
0.0
230
1.0
  2
SOLID
 70
     1
 71
     0
 91
        1
 92
        1
 93
        1
 72
     4
 94
        3
 73
     0
 74
     1
 95
       23
 96
       19
 40
0.0
 40
0.0
 40
0.0
 40
0.0
 40
1.0
 40
1.0
 40
1.0
 40
2.0
 40
2.0
 40
2.0
 40
3.0
 40
3.0
 40
3.0
 40
4.0
 40
4.0
 40
4.0
 40
5.0
 40
5.0
 40
5.0
 40
6.0
 40
6.0
 40
6.0
 40
6.0
 10
264.7861328125
 20
475.71728515625
 10
264.7861328125
 20
475.71728515625
 10
264.7861328125
 20
348.1806640625
 10
264.7861328125
 20
348.1806640625
 10
264.7861328125
 20
348.1806640625
 10
222.27587890625
 20
348.1806640625
 10
222.27587890625
 20
348.1806640625
 10
222.27587890625
 20
348.1806640625
 10
222.27587890625
 20
423.64404296875
 10
222.27587890625
 20
423.64404296875
 10
223.03173828125
 20
458.8720703125
 10
179.7646484375
 20
452.73486328125
 10
179.7646484375
 20
452.73486328125
 10
179.7646484375
 20
452.73486328125
 10
179.7646484375
 20
470.75146484375
 10
179.7646484375
 20
470.75146484375
 10
209.63818359375
 20
468.45263671875
 10
264.7861328125
 20
475.71728515625
 10
264.7861328125
 20
475.71728515625
 97
        0
 75
     2
 76
     1
 98
        0
  0
ENDBLK
  5
73
330
70
100
AcDbEntity
  8
0
100
AcDbBlockEnd
  0
ENDSEC
  0
SECTION
  2
ENTITIES
  0
INSERT
  5
3D
330
1F
100
AcDbEntity
  8
Ebene 1
100
AcDbBlockReference
  2
block 2
 10
0.0
 20
0.0
 30
0.0
  0
ENDSEC
  0
SECTION
  2
OBJECTS
  0
DICTIONARY
  5
C
330
0
100
AcDbDictionary
281
     1
  3
ACAD_GROUP
350
D
  3
ACAD_LAYOUT
350
1A
  3
ACAD_MLINESTYLE
350
17
  3
ACAD_PLOTSETTINGS
350
19
  3
ACAD_PLOTSTYLENAME
350
E
  3
ACAD_TABLESTYLE
350
78
  3
ACAD_VISUALSTYLE
350
2A
  0
DICTIONARY
  5
D
102
{ACAD_REACTORS
330
C
102
}
330
C
100
AcDbDictionary
281
     1
  0
DICTIONARY
  5
1A
102
{ACAD_REACTORS
330
C
102
}
330
C
100
AcDbDictionary
281
     1
  3
Layout1
350
1E
  3
Layout2
350
26
  3
Model
350
22
  0
DICTIONARY
  5
17
102
{ACAD_REACTORS
330
C
102
}
330
C
100
AcDbDictionary
281
     1
  3
Standard
350
18
  0
DICTIONARY
  5
19
102
{ACAD_REACTORS
330
C
102
}
330
C
100
AcDbDictionary
281
     1
  0
ACDBDICTIONARYWDFLT
  5
E
102
{ACAD_REACTORS
330
C
102
}
330
C
100
AcDbDictionary
281
     1
  3
Normal
350
F
100
AcDbDictionaryWithDefault
340
F
  0
DICTIONARY
  5
78
102
{ACAD_REACTORS
330
C
102
}
330
C
100
AcDbDictionary
281
     1
  0
DICTIONARY
  5
2A
102
{ACAD_REACTORS
330
C
102
}
330
C
100
AcDbDictionary
281
     1
  3
2dWireframe
350
2F
  3
3D Hidden
350
31
  3
3dWireframe
350
30
  3
Basic
350
32
  3
Brighten
350
36
  3
ColorChange
350
3A
  3
Conceptual
350
34
  3
Dim
350
35
  3
Facepattern
350
39
  3
Flat
350
2B
  3
FlatWithEdges
350
2C
  3
Gouraud
350
2D
  3
GouraudWithEdges
350
2E
  3
Linepattern
350
38
  3
Realistic
350
33
  3
Thicken
350
37
  0
LAYOUT
  5
1E
102
{ACAD_REACTORS
330
1A
102
}
330
1A
100
AcDbPlotSettings
  1

  2
none_device
  4

  6

 40
0.0
 41
0.0
 42
0.0
 43
0.0
 44
0.0
 45
0.0
 46
0.0
 47
0.0
 48
0.0
 49
0.0
140
0.0
141
0.0
142
1.0
143
1.0
 70
   688
 72
     0
 73
     0
 74
     5
  7

 75
    16
 76
     0
 77
     2
 78
   300
147
1.0
148
0.0
149
0.0
100
AcDbLayout
  1
Layout1
 70
     1
 71
     1
 10
0.0
 20
0.0
 11
12.0
 21
9.0
 12
0.0
 22
0.0
 32
0.0
 14
1.000000000000000E+20
 24
1.000000000000000E+20
 34
1.000000000000000E+20
 15
-1.000000000000000E+20
 25
-1.000000000000000E+20
 35
-1.000000000000000E+20
146
0.0
 13
0.0
 23
0.0
 33
0.0
 16
1.0
 26
0.0
 36
0.0
 17
0.0
 27
1.0
 37
0.0
 76
     0
330
1B
  0
LAYOUT
  5
26
102
{ACAD_REACTORS
330
1A
102
}
330
1A
100
AcDbPlotSettings
  1

  2
none_device
  4

  6

 40
0.0
 41
0.0
 42
0.0
 43
0.0
 44
0.0
 45
0.0
 46
0.0
 47
0.0
 48
0.0
 49
0.0
140
0.0
141
0.0
142
1.0
143
1.0
 70
   688
 72
     0
 73
     0
 74
     5
  7

 75
    16
 76
     0
 77
     2
 78
   300
147
1.0
148
0.0
149
0.0
100
AcDbLayout
  1
Layout2
 70
     1
 71
     2
 10
0.0
 20
0.0
 11
0.0
 21
0.0
 12
0.0
 22
0.0
 32
0.0
 14
0.0
 24
0.0
 34
0.0
 15
0.0
 25
0.0
 35
0.0
146
0.0
 13
0.0
 23
0.0
 33
0.0
 16
1.0
 26
0.0
 36
0.0
 17
0.0
 27
1.0
 37
0.0
 76
     0
330
23
  0
LAYOUT
  5
22
102
{ACAD_REACTORS
330
1A
102
}
330
1A
100
AcDbPlotSettings
  1

  2
none_device
  4

  6

 40
0.0
 41
0.0
 42
0.0
 43
0.0
 44
0.0
 45
0.0
 46
0.0
 47
0.0
 48
0.0
 49
0.0
140
0.0
141
0.0
142
1.0
143
1.0
 70
  1712
 72
     0
 73
     0
 74
     0
  7

 75
     0
 76
     0
 77
     2
 78
   300
147
1.0
148
0.0
149
0.0
100
AcDbLayout
  1
Model
 70
     1
 71
     0
 10
0.0
 20
0.0
 11
12.0
 21
9.0
 12
0.0
 22
0.0
 32
0.0
 14
1.000000000000000E+20
 24
1.000000000000000E+20
 34
1.000000000000000E+20
 15
-1.000000000000000E+20
 25
-1.000000000000000E+20
 35
-1.000000000000000E+20
146
0.0
 13
0.0
 23
0.0
 33
0.0
 16
1.0
 26
0.0
 36
0.0
 17
0.0
 27
1.0
 37
0.0
 76
     0
330
1F
331
29
  0
MLINESTYLE
  5
18
102
{ACAD_REACTORS
330
17
102
}
330
17
100
AcDbMlineStyle
  2
Standard
 70
     0
  3

 62
   256
 51
90.0
 52
90.0
 71
     2
 49
0.5
 62
   256
  6
BYLAYER
 49
-0.5
 62
   256
  6
BYLAYER
  0
ACDBPLACEHOLDER
  5
F
102
{ACAD_REACTORS
330
E
102
}
330
E
  0
VISUALSTYLE
  5
2F
102
{ACAD_REACTORS
330
2A
102
}
330
2A
100
AcDbVisualStyle
  2
2dWireframe
 70
     4
 71
     0
 72
     2
 73
     0
 90
        0
 40
-0.6
 41
-30.0
 62
     5
 63
     7
421
 16777215
 74
     1
 91
        4
 64
     7
 65
   257
 75
     1
175
     1
 42
1.0
 92
        0
 66
   257
 43
1.0
 76
     1
 77
     6
 78
     2
 67
     7
 79
     5
170
     0
171
     0
290
     0
174
     0
 93
        1
 44
0.0
173
     0
291
     0
 45
0.0
1001
ACAD
1000
AcDbSavedByObjectVersion
1070
     0
  0
VISUALSTYLE
  5
31
102
{ACAD_REACTORS
330
2A
102
}
330
2A
100
AcDbVisualStyle
  2
3D Hidden
 70
     6
 71
     1
 72
     2
 73
     2
 90
        0
 40
-0.6
 41
-30.0
 62
     5
 63
     7
421
 16777215
 74
     2
 91
        2
 64
     7
 65
   257
 75
     2
175
     1
 42
40.0
 92
        0
 66
   257
 43
1.0
 76
     1
 77
     6
 78
     2
 67
     7
 79
     3
170
     0
171
     0
290
     0
174
     0
 93
        1
 44
0.0
173
     0
291
     0
 45
0.0
1001
ACAD
1000
AcDbSavedByObjectVersion
1070
     0
  0
VISUALSTYLE
  5
30
102
{ACAD_REACTORS
330
2A
102
}
330
2A
100
AcDbVisualStyle
  2
3dWireframe
 70
     5
 71
     0
 72
     2
 73
     0
 90
        0
 40
-0.6
 41
-30.0
 62
     5
 63
     7
421
 16777215
 74
     1
 91
        4
 64
     7
 65
   257
 75
     1
175
     1
 42
1.0
 92
        0
 66
   257
 43
1.0
 76
     1
 77
     6
 78
     2
 67
     7
 79
     5
170
     0
171
     0
290
     0
174
     0
 93
        1
 44
0.0
173
     0
291
     0
 45
0.0
1001
ACAD
1000
AcDbSavedByObjectVersion
1070
     0
  0
VISUALSTYLE
  5
32
102
{ACAD_REACTORS
330
2A
102
}
330
2A
100
AcDbVisualStyle
  2
Basic
 70
     7
 71
     1
 72
     0
 73
     1
 90
        0
 40
-0.6
 41
-30.0
 62
     5
 63
     7
421
 16777215
 74
     0
 91
        4
 64
     7
 65
   257
 75
     1
175
     1
 42
1.0
 92
        8
 66
     7
 43
1.0
 76
     1
 77
     6
 78
     2
 67
     7
 79
     5
170
     0
171
     0
290
     0
174
     0
 93
        1
 44
0.0
173
     0
291
     1
 45
0.0
1001
ACAD
1000
AcDbSavedByObjectVersion
1070
     0
  0
VISUALSTYLE
  5
36
102
{ACAD_REACTORS
330
2A
102
}
330
2A
100
AcDbVisualStyle
  2
Brighten
 70
    12
 71
     2
 72
     2
 73
     0
 90
        0
 40
-0.6
 41
-30.0
 62
     5
 63
     7
421
 16777215
 74
     1
 91
        4
 64
     7
 65
   257
 75
     1
175
     1
 42
1.0
 92
        8
 66
     7
 43
1.0
 76
     1
 77
     6
 78
     2
 67
     7
 79
     5
170
     0
171
     0
290
     0
174
     0
 93
        1
 44
50.0
173
     0
291
     1
 45
0.0
1001
ACAD
1000
AcDbSavedByObjectVersion
1070
     0
  0
VISUALSTYLE
  5
3A
102
{ACAD_REACTORS
330
2A
102
}
330
2A
100
AcDbVisualStyle
  2
ColorChange
 70
    16
 71
     2
 72
     2
 73
     3
 90
        0
 40
-0.6
 41
-30.0
 62
     5
 63
     8
421
  8421504
 74
     1
 91
        4
 64
     7
 65
   257
 75
     1
175
     1
 42
1.0
 92
        8
 66
     8
424
  8421504
 43
1.0
 76
     1
 77
     6
 78
     2
 67
     7
 79
     5
170
     0
171
     0
290
     0
174
     0
 93
        1
 44
0.0
173
     0
291
     1
 45
0.0
1001
ACAD
1000
AcDbSavedByObjectVersion
1070
     0
  0
VISUALSTYLE
  5
34
102
{ACAD_REACTORS
330
2A
102
}
330
2A
100
AcDbVisualStyle
  2
Conceptual
 70
     9
 71
     3
 72
     2
 73
     0
 90
        0
 40
-0.6
 41
-30.0
 62
     5
 63
     7
421
 16777215
 74
     2
 91
        2
 64
     7
 65
   257
 75
     1
175
     1
 42
40.0
 92
        8
 66
     7
 43
1.0
 76
     1
 77
     6
 78
     2
 67
     7
 79
     3
170
     0
171
     0
290
     0
174
     0
 93
        1
 44
0.0
173
     0
291
     0
 45
0.0
1001
ACAD
1000
AcDbSavedByObjectVersion
1070
     0
  0
VISUALSTYLE
  5
35
102
{ACAD_REACTORS
330
2A
102
}
330
2A
100
AcDbVisualStyle
  2
Dim
 70
    11
 71
     2
 72
     2
 73
     0
 90
        0
 40
-0.6
 41
-30.0
 62
     5
 63
     7
421
 16777215
 74
     1
 91
        4
 64
     7
 65
   257
 75
     1
175
     1
 42
1.0
 92
        8
 66
     7
 43
1.0
 76
     1
 77
     6
 78
     2
 67
     7
 79
     5
170
     0
171
     0
290
     0
174
     0
 93
        1
 44
-50.0
173
     0
291
     1
 45
0.0
1001
ACAD
1000
AcDbSavedByObjectVersion
1070
     0
  0
VISUALSTYLE
  5
39
102
{ACAD_REACTORS
330
2A
102
}
330
2A
100
AcDbVisualStyle
  2
Facepattern
 70
    15
 71
     2
 72
     2
 73
     0
 90
        0
 40
-0.6
 41
-30.0
 62
     5
 63
     7
421
 16777215
 74
     1
 91
        4
 64
     7
 65
   257
 75
     1
175
     1
 42
1.0
 92
        8
 66
     7
 43
1.0
 76
     1
 77
     6
 78
     2
 67
     7
 79
     5
170
     0
171
     0
290
     0
174
     0
 93
        1
 44
0.0
173
     0
291
     1
 45
0.0
1001
ACAD
1000
AcDbSavedByObjectVersion
1070
     0
  0
VISUALSTYLE
  5
2B
102
{ACAD_REACTORS
330
2A
102
}
330
2A
100
AcDbVisualStyle
  2
Flat
 70
     0
 71
     2
 72
     1
 73
     1
 90
        2
 40
-0.6
 41
30.0
 62
     5
 63
     7
421
 16777215
 74
     0
 91
        4
 64
     7
 65
   257
 75
     1
175
     1
 42
1.0
 92
        8
 66
     7
 43
1.0
 76
     1
 77
     6
 78
     2
 67
     7
 79
     5
170
     0
171
     0
290
     0
174
     0
 93
       13
 44
0.0
173
     0
291
     1
 45
0.0
1001
ACAD
1000
AcDbSavedByObjectVersion
1070
     0
  0
VISUALSTYLE
  5
2C
102
{ACAD_REACTORS
330
2A
102
}
330
2A
100
AcDbVisualStyle
  2
FlatWithEdges
 70
     1
 71
     2
 72
     1
 73
     1
 90
        2
 40
-0.6
 41
30.0
 62
     5
 63
     7
421
 16777215
 74
     1
 91
        4
 64
     7
 65
   257
 75
     1
175
     1
 42
1.0
 92
        0
 66
   257
 43
1.0
 76
     1
 77
     6
 78
     2
 67
     7
 79
     5
170
     0
171
     0
290
     0
174
     0
 93
       13
 44
0.0
173
     0
291
     1
 45
0.0
1001
ACAD
1000
AcDbSavedByObjectVersion
1070
     0
  0
VISUALSTYLE
  5
2D
102
{ACAD_REACTORS
330
2A
102
}
330
2A
100
AcDbVisualStyle
  2
Gouraud
 70
     2
 71
     2
 72
     2
 73
     1
 90
        2
 40
-0.6
 41
30.0
 62
     5
 63
     7
421
 16777215
 74
     0
 91
        4
 64
     7
 65
   257
 75
     1
175
     1
 42
1.0
 92
        0
 66
     7
 43
1.0
 76
     1
 77
     6
 78
     2
 67
     7
 79
     5
170
     0
171
     0
290
     0
174
     0
 93
       13
 44
0.0
173
     0
291
     1
 45
0.0
1001
ACAD
1000
AcDbSavedByObjectVersion
1070
     0
  0
VISUALSTYLE
  5
2E
102
{ACAD_REACTORS
330
2A
102
}
330
2A
100
AcDbVisualStyle
  2
GouraudWithEdges
 70
     3
 71
     2
 72
     2
 73
     1
 90
        2
 40
-0.6
 41
30.0
 62
     5
 63
     7
421
 16777215
 74
     1
 91
        4
 64
     7
 65
   257
 75
     1
175
     1
 42
1.0
 92
        0
 66
   257
 43
1.0
 76
     1
 77
     6
 78
     2
 67
     7
 79
     5
170
     0
171
     0
290
     0
174
     0
 93
       13
 44
0.0
173
     0
291
     1
 45
0.0
1001
ACAD
1000
AcDbSavedByObjectVersion
1070
     0
  0
VISUALSTYLE
  5
38
102
{ACAD_REACTORS
330
2A
102
}
330
2A
100
AcDbVisualStyle
  2
Linepattern
 70
    14
 71
     2
 72
     2
 73
     0
 90
        0
 40
-0.6
 41
-30.0
 62
     5
 63
     7
421
 16777215
 74
     1
 91
        4
 64
     7
 65
   257
 75
     7
175
     7
 42
1.0
 92
        8
 66
     7
 43
1.0
 76
     1
 77
     6
 78
     2
 67
     7
 79
     5
170
     0
171
     0
290
     0
174
     0
 93
        1
 44
0.0
173
     0
291
     1
 45
0.0
1001
ACAD
1000
AcDbSavedByObjectVersion
1070
     0
  0
VISUALSTYLE
  5
33
102
{ACAD_REACTORS
330
2A
102
}
330
2A
100
AcDbVisualStyle
  2
Realistic
 70
     8
 71
     2
 72
     2
 73
     0
 90
        0
 40
-0.6
 41
-30.0
 62
     5
 63
     7
421
 16777215
 74
     1
 91
        0
 64
     7
 65
   257
 75
     1
175
     1
 42
1.0
 92
        8
 66
     8
424
  7895160
 43
1.0
 76
     1
 77
     6
 78
     2
 67
     7
 79
     5
170
     0
171
     0
290
     0
174
     0
 93
       13
 44
0.0
173
     0
291
     0
 45
0.0
1001
ACAD
1000
AcDbSavedByObjectVersion
1070
     0
  0
VISUALSTYLE
  5
37
102
{ACAD_REACTORS
330
2A
102
}
330
2A
100
AcDbVisualStyle
  2
Thicken
 70
    13
 71
     2
 72
     2
 73
     0
 90
        0
 40
-0.6
 41
-30.0
 62
     5
 63
     7
421
 16777215
 74
     1
 91
        4
 64
     7
 65
   257
 75
     1
175
     1
 42
1.0
 92
       12
 66
     7
 43
1.0
 76
     1
 77
     6
 78
     2
 67
     7
 79
     5
170
     0
171
     0
290
     0
174
     0
 93
        1
 44
0.0
173
     0
291
     1
 45
0.0
1001
ACAD
1000
AcDbSavedByObjectVersion
1070
     0
  0
ENDSEC
  0
EOF
