<?xml version="1.0" encoding="utf-8"?>
<!-- Generator: Adobe Illustrator 15.0.0, SVG Export Plug-In . SVG Version: 6.00 Build 0)  -->
<!DOCTYPE svg PUBLIC "-//W3C//DTD SVG 1.1//EN" "http://www.w3.org/Graphics/SVG/1.1/DTD/svg11.dtd">
<svg version="1.1" id="Ebene_1" xmlns="http://www.w3.org/2000/svg" xmlns:xlink="http://www.w3.org/1999/xlink" x="0px" y="0px"
	 width="1000px" height="350.434px" viewBox="0 0 1000 350.434" enable-background="new 0 0 1000 350.434" xml:space="preserve">
<g id="Ebene_1_1_">
	<g id="Ebene_4">
		<g id="XMLID_3_">
			<g>
				<path fill="#A1A1A1" d="M998.573,337.205c0,0,10.963,7.171-27.893,12.109c0,0-22.981,4.735-24.13-15.761
					c-1.152-20.479,0.137-77.738,0.137-77.738l-17.184-0.049v-11.055h17.229l0.141-32.169h19.394v32.169h29.873v11.49h-29.873
					v70.085C966.267,326.289,963.279,342.377,998.573,337.205z"/>
				<path fill="#A1A1A1" d="M914.265,319.972c11.214-12.362,9.766,2.569,9.766,2.569c-10.342,29.299-44.509,27.873-44.509,27.873
					c-48.556,1.104-46.258-55.724-46.258-55.724s-3.146-48.257,47.407-51.454c50.554-3.193,40.788,49.733,40.788,49.733h-66.642
					c-2.597,29.569,15.786,45.957,32.168,44.461C903.35,335.965,903.075,332.313,914.265,319.972z M900.779,283.78
					c0,0,2.896-34.766-22.104-32.169c0,0-22.129-0.874-23.854,32.169H900.779z"/>
				<path fill="#A1A1A1" d="M766.348,188.21c16.086,1.241,40.88-2.205,40.88-2.205s-0.092,123.811-0.481,140.653
					c-0.366,16.865,14.749,13.419,14.749,13.419v8.043h-49.797l0.094-7.63c16.773,1.633,15.418-7.513,15.418-7.513
					s-0.187-103.313,0.089-122.847c0.3-19.531-20.957-14.823-20.957-14.823v-7.1L766.348,188.21L766.348,188.21z"/>
				<path fill="#A1A1A1" d="M751.113,319.972c11.217-12.362,9.768,2.569,9.768,2.569c-10.343,29.299-44.513,27.873-44.513,27.873
					c-48.553,1.104-46.258-55.724-46.258-55.724s-3.146-48.257,47.406-51.454c50.559-3.193,40.788,49.733,40.788,49.733h-66.639
					c-2.598,29.569,15.785,45.957,32.171,44.461C740.201,335.965,739.924,332.313,751.113,319.972z M737.628,283.78
					c0,0,2.896-34.766-22.108-32.169c0,0-22.129-0.874-23.851,32.169H737.628z"/>
				<path fill="#A1A1A1" d="M654.19,320.823c0,0,11.813-11.009,5.695,6.62c0,0-11.487,24.217-41.361,21.876
					c-29.872-2.343-40.212-16.521-44.81-49.449c-4.598-32.951,20.686-56.555,46.717-56.625
					c26.037-0.063,37.157,12.576,36.376,26.363c-0.759,13.788-9.56,13.029-13.005,13.029c-3.448,0-13.029-3.078-11.122-13.788
					c1.93-10.734,1.93-15.717,1.93-15.717s-37.849-14.503-39.846,36.976c-2.001,51.448,24.517,47.383,29.87,47.338
					C630.011,337.39,648.052,337.299,654.19,320.823z"/>
				<path fill="#A1A1A1" d="M564.131,339.781v7.191c0,0-30.446,13.213-34.471-12.065c0,0-46.415,36.217-60.018-5.949
					c-0.117-0.323-0.209-0.623-0.301-0.945c0,0-11.215-30.744,57.149-46.257c0,0,9.489-29.873-15.51-30.445
					c0,0-21.831,1.446-14.938,8.915c0,0,8.041,17.51-12.199,17.51c0,0-9.976,1.724-10.848-12.639
					c-0.85-14.361,23.46-22.404,38.397-21.829c14.938,0.571,34.351-0.852,36.652,22.404v62.917
					C548.05,328.589,548.05,340.929,564.131,339.781z M529.66,321.696v-31.621c-43.657,10.339-39.358,30.031-39.358,30.031
					C489.449,358.161,529.66,321.696,529.66,321.696z"/>
			</g>
		</g>
	</g>
</g>
<path fill="#0098FF" d="M170.042,205.354l30.187-13.872c0,0,39.292-19.068,39.374-75.126c0.081-56.059-51.561-81.047-79.909-77.056
	C131.345,43.29,0,39.433,0,39.433v16.721c0,0,42.359-3.416,42.359,21.779s0,230.156,0,230.156s4.468,25.673-40.51,22.474
	L1.67,349.334l119.569-1.004v-16.453c0,0-27.489,2.029-31.682-17.305c-4.192-19.334,0-102.354,0-102.354
	S144.532,217.075,170.042,205.354z"/>
<path fill="#FFFFFF" d="M89.181,191.482V56.709c0,0,97.604-17.061,93.819,66.329C179.216,206.426,98.036,189.762,89.181,191.482z"/>
<path fill="#B9D300" d="M180.405,207.982c0,0,28.048,21.726,25.854,59.584c-2.193,37.861-17.992,66.836-74.655,65.576l1.293,17.804
	c0,0,124.354,12.248,127.995-78.362c0,0,7.875-60.035-50.3-78.474L180.405,207.982z"/>
<path fill="#B9D300" d="M281.95,349.341h112.59V332.62c0,0-36.261,7.866-40.13-19.797c-3.869-27.663,0-129.579,0-129.579
	s16.204-30.476,44.589-30.102c0,0-8.5,38.363,22.855,35.115c31.355-3.247,33.521-49.521,0-61.341c0,0-39.638-4.275-67.443,35.414
	v-29.249l-75.803,0.266v16.452c0,0,29.495-2.827,33.707,23.121c4.212,25.947,0.851,143.734,0.851,143.734s1.12,19.863-31.773,16.231
	L281.95,349.341z"/>
<path fill="#0098FF" d="M354.412,123.53h-41.245V47.328c0,0-0.189-27.093-41.246-23.631V6.217c0,0,59.276-2.233,82.49-4.817V123.53z
	"/>
</svg>
