<?xml version="1.0" encoding="utf-8"?>
<!-- Generator: Adobe Illustrator 15.0.0, SVG Export Plug-In . SVG Version: 6.00 Build 0)  -->
<!DOCTYPE svg PUBLIC "-//W3C//DTD SVG 1.1//EN" "http://www.w3.org/Graphics/SVG/1.1/DTD/svg11.dtd">
<svg version="1.1" xmlns="http://www.w3.org/2000/svg" xmlns:xlink="http://www.w3.org/1999/xlink" x="0px" y="0px"
	 width="354.191px" height="277.913px" viewBox="57.5 78.695 354.191 277.913" enable-background="new 57.5 78.695 354.191 277.913"
	 xml:space="preserve">
<g id="Ebene_1" display="none">
	<g id="Ebene_1_1_" display="inline">
		<g id="XMLID_1_">
			<g>
				<path fill="#7E74E1" d="M256.372,288.288C256.707,360.813,163.688,354,163.688,354l-9.944,0.09v-0.922v-12.14
					c3.237,0.053,6.901-0.107,11.043-0.531c13.893-1.417,29.874-5.964,38.724-18.354c14.158-24.776,14.142-62.153-11.026-81.553
					l23.963-11.01C216.447,229.584,256.161,237.847,256.372,288.288z"/>
				<path fill="#B7D300" d="M247.524,167.288c0,0,4.424,41.854-31.079,62.296l-23.963,11.012c0,0-11.539,7.222-63.89,5.449v81.251
					c0,0-0.584,13.383,25.149,13.735v12.138v0.924l-94.915,0.796l0.142-14.9c36.883,2.654,32.157-17.839,32.157-17.839V136.972
					C91.126,120.833,57.5,122.16,57.5,122.16v-13.273h123.001C180.503,108.885,239.56,103.575,247.524,167.288z M128.293,229.584
					c0,0,77.569,10.037,74.475-54.331c-3.098-64.387-53.237-51.324-74.475-52.652V229.584z"/>
			</g>
		</g>
		<g id="r_x2F_l">
			<g id="XMLID_2_">
				<g>
					<path fill="#7E74E1" d="M411.841,203.345c2.424,24.335-19.468,23.681-19.468,23.681c-26.99,1.098-18.143-27.875-18.143-27.875
						c-20.584-0.672-35.396,23.894-35.396,23.894v102.862c1.771,21.023,31.855,15.715,31.855,15.715v13.273h-89.375l-0.441-13.063
						c22.774,2.655,24.775-9.944,24.775-9.944L305.42,214.85c-3.981-20.564-26.757-18.354-26.757-18.354v-13.06l27.433-0.214h32.74
						v0.886v22.335c17.699-25.874,44.793-27.874,49.219-28.087C392.479,178.128,409.398,179.01,411.841,203.345z"/>
					<path fill="#B7D300" d="M338.836,85v98.226h-32.74v-58.12c0.582-27.132-32.741-22.405-32.741-22.405V88.824
						C296.363,90.594,338.836,85,338.836,85z"/>
				</g>
			</g>
		</g>
	</g>
</g>
<g id="Ebene_2">
	<path fill="#0098FF" d="M192.482,240.595l23.963-11.012c0,0,31.19-15.136,31.255-59.636s-40.93-64.336-63.433-61.168
		S57.5,108.886,57.5,108.886v13.273c0,0,33.625-2.712,33.625,17.288s0,182.701,0,182.701s3.547,20.379-32.157,17.839l-0.142,14.9
		l94.915-0.796v-13.062c0,0-21.821,1.612-25.149-13.735s0-81.251,0-81.251S172.232,249.901,192.482,240.595z"/>
	<path fill="#FFFFFF" d="M128.293,229.584V122.6c0,0,77.479-13.543,74.475,52.652S135.323,228.219,128.293,229.584z"/>
</g>
<g id="Ebene_3">
	<path fill="#B9D300" d="M200.707,242.682c0,0,22.265,17.245,20.523,47.299s-14.282,53.054-59.262,52.054l1.026,14.133
		c0,0,98.713,9.723,101.604-62.205c0,0,6.252-47.656-39.929-62.292L200.707,242.682z"/>
</g>
<g id="Ebene_4">
	<path fill="#B9D300" d="M281.316,354.895h89.375v-13.273c0,0-28.784,6.244-31.855-15.715s0-102.862,0-102.862
		s12.862-24.19,35.396-23.894c0,0-6.748,30.453,18.143,27.875s26.609-39.311,0-48.694c0,0-31.465-3.394-53.537,28.111v-23.218
		l-60.173,0.211v13.06c0,0,23.413-2.243,26.757,18.354s0.676,114.098,0.676,114.098s0.889,15.768-25.222,12.884L281.316,354.895z"/>
</g>
<g id="Ebene_5">
	<path fill="#0098FF" d="M338.836,175.643h-32.74v-60.489c0,0-0.15-21.507-32.741-18.759V82.519c0,0,47.054-1.772,65.481-3.824
		V175.643z"/>
</g>
</svg>
